<svg width="66" height="66" viewBox="0 0 66 66" fill="none" xmlns="http://www.w3.org/2000/svg">
<path d="M32.9994 7.76343e-09C26.4726 0.000117981 20.0925 1.93565 14.6657 5.56182C9.23896 9.188 5.00936 14.342 2.51177 20.372C0.014187 26.402 -0.63921 33.0372 0.634208 39.4385C1.90763 45.8399 5.05066 51.7198 9.66587 56.3349C14.2811 60.9499 20.1612 64.0928 26.5625 65.366C32.9639 66.6392 39.5991 65.9856 45.629 63.4878C51.6589 60.99 56.8128 56.7603 60.4388 51.3334C64.0648 45.9065 66.0001 39.5263 66 32.9995C65.9999 28.6659 65.1463 24.3747 63.4879 20.371C61.8294 16.3672 59.3986 12.7294 56.3342 9.66506C53.2698 6.60077 49.6318 4.17006 45.628 2.51173C41.6243 0.853392 37.333 -9.39901e-05 32.9994 7.76343e-09Z" fill="white"/>
<path d="M53.0505 21.1443C52.6909 21.2676 52.3244 21.37 51.953 21.4508C54.0139 24.8333 55.1317 28.706 55.1903 32.6665C55.249 36.627 54.2462 40.531 52.2863 43.973C50.3264 47.4151 47.4808 50.2697 44.0449 52.2404C40.609 54.2111 36.7082 55.2261 32.7475 55.1799C28.7868 55.1338 24.9107 54.0281 21.5217 51.9778C18.1327 49.9276 15.3544 47.0074 13.4752 43.5206C11.5961 40.0338 10.6847 36.1075 10.8356 32.1494C10.9865 28.1913 12.1943 24.3459 14.3335 21.0123C13.9747 20.9064 13.6248 20.7721 13.2873 20.6108C11.0892 24.1118 9.86287 28.1348 9.73419 32.2666C9.6055 36.3983 10.5791 40.4899 12.5551 44.1208C14.531 47.7517 17.4379 50.7912 20.9773 52.9269C24.5166 55.0625 28.5607 56.2174 32.6941 56.2729C36.8275 56.3283 40.9012 55.2823 44.4965 53.2424C48.0919 51.2025 51.0793 48.2421 53.152 44.6655C55.2246 41.0888 56.3076 37.0249 56.2898 32.8912C56.2721 28.7575 55.1541 24.703 53.0507 21.1443H53.0505Z" fill="#C41230"/>
<path d="M20.1071 14.946C24.0889 12.1021 28.899 10.6539 33.7891 10.8268C38.6792 10.9997 43.3751 12.7839 47.1462 15.9019C47.5796 15.7784 48.0011 15.6671 48.4327 15.5572C44.395 11.9861 39.2435 9.92642 33.8569 9.72943C28.4702 9.53244 23.182 11.2104 18.8943 14.477C19.0794 14.5443 19.2664 14.6124 19.455 14.6851C19.6795 14.7712 19.8968 14.8582 20.1069 14.946H20.1071Z" fill="#C41230"/>
<path d="M32.9994 7.76343e-09C26.4726 0.000117981 20.0925 1.93565 14.6657 5.56182C9.23896 9.188 5.00936 14.342 2.51177 20.372C0.014187 26.402 -0.63921 33.0372 0.634208 39.4385C1.90763 45.8399 5.05066 51.7198 9.66587 56.3349C14.2811 60.9499 20.1612 64.0928 26.5625 65.366C32.9639 66.6392 39.5991 65.9856 45.629 63.4878C51.6589 60.99 56.8128 56.7603 60.4388 51.3334C64.0648 45.9065 66.0001 39.5263 66 32.9995C65.9999 28.6659 65.1463 24.3747 63.4879 20.371C61.8294 16.3672 59.3986 12.7294 56.3342 9.66506C53.2698 6.60077 49.6318 4.17006 45.628 2.51173C41.6243 0.853392 37.333 -9.39901e-05 32.9994 7.76343e-09ZM33.0007 63.956C26.8783 63.9561 20.8933 62.1408 15.8026 58.7395C10.7118 55.3382 6.74405 50.5037 4.40095 44.8473C2.05784 39.191 1.44464 32.9669 2.63891 26.962C3.83318 20.9572 6.78127 15.4414 11.1104 11.112C15.4395 6.78268 20.9552 3.83429 26.9599 2.6397C32.9647 1.44511 39.1889 2.05796 44.8453 4.40077C50.5018 6.74357 55.3365 10.7111 58.7381 15.8016C62.1397 20.8922 63.9553 26.8771 63.9555 32.9995C63.9555 41.2094 60.6943 49.083 54.8892 54.8884C49.0841 60.6939 41.2106 63.9555 33.0007 63.956Z" fill="#C0C2C4"/>
<path d="M25.04 26.3834C24.5587 26.1393 24.1137 25.8294 23.7179 25.4625C23.095 24.9797 22.6338 24.3187 22.3957 23.5673C22.1576 22.816 22.1539 22.01 22.3851 21.2565C22.7346 20.5188 22.9057 19.7093 22.8847 18.8934C22.7611 18.351 22.4586 17.8661 22.0257 17.5167C20.9562 16.5615 19.6803 15.8664 18.2977 15.4858C16.4011 14.9669 14.604 14.1361 12.9801 13.0273C12.8565 13.4636 12.9003 13.9303 13.103 14.3359C13.3058 14.7415 13.6527 15.0568 14.0759 15.2198C13.7833 15.2431 13.4985 15.3258 13.239 15.4628C12.9795 15.5999 12.7506 15.7884 12.5664 16.0169C13.1716 16.6989 14.0093 17.1308 14.9158 17.2283C14.5072 17.5273 14.1631 17.9057 13.9044 18.3409C14.7547 18.7813 15.7014 19.0027 16.6589 18.9851C16.3023 19.2721 15.9969 19.6175 15.7558 20.0066C16.6661 20.4091 17.635 20.6628 18.6257 20.7582C18.1148 21.1142 17.6764 21.5643 17.3341 22.0844C18.2455 22.3746 19.1888 22.5527 20.1432 22.6147C19.5033 22.9821 18.9638 23.5016 18.5726 24.1272C19.4151 24.5085 20.3285 24.7079 21.2533 24.7125C20.8248 25.1281 20.503 25.6409 20.315 26.2074C21.0771 26.3495 21.8578 26.3606 22.6235 26.2401C22.1679 26.8755 21.8896 27.6208 21.8173 28.3993C22.6131 28.3923 23.3959 28.1967 24.1015 27.8286C23.9536 28.4156 23.9954 29.0344 24.2208 29.5962C24.5496 29.5183 24.8663 29.3957 25.1618 29.2317C25.1128 28.2391 25.0695 27.2222 25.0401 26.3838L25.04 26.3834Z" fill="#00578E"/>
<path d="M53.474 14.6324C52.1591 15.823 50.0568 16.1412 47.85 16.8701C46.3277 17.2563 44.9029 17.9566 43.6672 18.926C43.4023 19.1165 43.191 19.372 43.0537 19.668C42.9164 19.964 42.8577 20.2904 42.8835 20.6157C42.934 21.566 43.0882 21.9757 43.1119 23.3042C43.1489 24.0857 42.8976 24.8536 42.4057 25.4621C41.991 25.9252 41.4989 26.3128 40.9515 26.6073C40.9215 27.4151 40.8854 28.2264 40.8405 29.1692C41.1767 29.3531 41.5337 29.496 41.9038 29.5951C42.1279 29.033 42.1694 28.4145 42.0224 27.8275C42.7275 28.1959 43.51 28.3918 44.3056 28.399C44.2334 27.6205 43.9552 26.8752 43.4996 26.2398C44.2649 26.3602 45.0452 26.3491 45.8068 26.207C45.6192 25.6405 45.2978 25.1276 44.8697 24.7119C45.7946 24.7072 46.7082 24.5078 47.5509 24.1266C47.1593 23.5013 46.62 22.9819 45.9804 22.614C46.9466 22.5533 47.9022 22.377 48.8265 22.0891C48.4707 21.566 48.02 21.1142 47.4978 20.7571C48.4885 20.6616 49.4575 20.4079 50.3678 20.0055C50.126 19.617 49.8208 19.2718 49.465 18.984C50.4169 18.956 51.3533 18.7369 52.2188 18.3398C51.9598 17.9049 51.6159 17.5265 51.2077 17.2272C53.4324 16.608 53.47 15.4966 53.4735 14.6313L53.474 14.6324Z" fill="#00578E"/>
<path d="M44.122 16.9829C40.9981 14.8187 37.3107 13.6132 33.5117 13.514C29.7127 13.4148 25.9674 14.4263 22.7349 16.4245C23.4042 16.8666 23.8839 17.5433 24.0793 18.3213C24.2278 19.0871 24.1693 19.8786 23.9097 20.6143C23.6666 21.1427 23.5619 21.7242 23.6054 22.3042C23.6488 22.8843 23.8391 23.4437 24.1582 23.93C24.7839 24.8481 25.7454 25.4834 26.8353 25.6989C27.9532 25.5027 29.1923 25.3421 30.4261 25.2435C30.6587 24.6955 31.0463 24.2272 31.5412 23.8962C31.6582 23.8324 31.7611 23.7456 31.8438 23.641C31.9265 23.5364 31.9872 23.4163 32.0223 23.2877C32.0574 23.1591 32.0662 23.0247 32.0481 22.8926C32.03 22.7606 31.9854 22.6335 31.9171 22.5191C31.7604 22.2077 31.5018 21.9593 31.1844 21.8152C30.8724 21.6542 29.7289 21.535 29.7595 22.2657C29.6438 22.1137 29.5634 21.9378 29.5242 21.7508C29.485 21.5639 29.488 21.3705 29.5328 21.1849C29.6868 20.5476 30.728 20.3856 30.9869 20.4045C30.7864 20.2343 30.9112 19.96 31.3672 19.8337C31.8852 19.6995 32.4204 19.6444 32.9548 19.6703C33.284 19.6465 33.6141 19.7026 33.917 19.8337C34.2199 19.9648 34.4867 20.167 34.6948 20.4233C35.3344 20.9921 36.1777 21.1877 36.5119 20.8453C36.3663 21.1033 36.1474 21.3123 35.883 21.4457C35.6185 21.5791 35.3204 21.631 35.0264 21.5948C35.2386 22.3109 35.3751 23.0473 35.4337 23.792C35.4723 24.151 35.5471 24.7556 35.6444 25.249C36.997 25.3599 38.3428 25.5412 39.6765 25.7923C40.2651 25.6169 40.7889 25.272 41.1827 24.8007C41.5109 24.4163 41.7443 23.9603 41.8643 23.4692C41.9842 22.9782 41.9872 22.4658 41.873 21.9734C41.7455 21.2403 41.6627 20.5001 41.625 19.757C41.6983 18.4867 42.6413 17.6574 44.122 16.9842V16.9829Z" fill="#00578E"/>
<path d="M31.1593 20.4648C31.3533 20.6105 31.4657 20.6283 31.5307 20.6143C31.5358 20.6501 31.5997 20.6964 31.6142 20.7097C31.6497 20.738 31.6759 20.7761 31.6897 20.8194C31.7776 20.7827 32.0104 20.6881 32.2221 20.612C32.4376 20.5345 32.7351 20.447 32.7351 20.447C31.8121 20.2527 31.6722 20.5345 31.1593 20.4643V20.4648Z" fill="#00578E"/>
<path d="M32.4548 35.8797L32.0673 35.6858L31.8158 35.0297L31.2458 34.7811L30.6065 34.2093L30.2257 34.6301L29.6578 34.7621L29.3558 35.2431L28.8964 35.7283L28.2747 36.0573L27.844 36.7869L27.6006 37.1102L27.1799 37.4371L26.9478 37.1917L26.7004 37.4289L26.3903 38.0039C26.2038 37.5416 26.0977 37.0509 26.0765 36.5529C25.9852 35.2782 25.8929 33.6767 25.8021 32.0377C28.0911 31.5625 30.4196 31.3033 32.7571 31.2632V36.2311C32.6859 36.1957 32.6226 36.1463 32.5708 36.086C32.519 36.0257 32.4798 35.9556 32.4555 35.8799L32.4548 35.8797Z" fill="#0078AE"/>
<path d="M32.7598 38.2725H26.5054C26.5959 38.4625 26.7026 38.6443 26.8245 38.8159C27.2909 39.4662 27.9619 39.9413 28.7302 40.1652C29.8353 40.5051 30.539 40.7259 31.0521 40.8886L31.6634 41.0795C32.0758 41.1939 32.4529 41.4102 32.7598 41.7085V38.2725Z" fill="#5E9732"/>
<path d="M39.3625 35.8555C39.5482 35.6903 39.7605 35.5576 39.9904 35.4631C40.0271 34.8805 40.0652 34.2561 40.1033 33.6104C40.0348 33.6553 39.9611 33.7141 39.8729 33.7858C39.5154 34.1279 39.0415 34.3216 38.5467 34.3278C38.0678 34.3188 37.6029 34.1649 37.2132 33.8864C36.99 33.7147 36.7202 33.6145 36.439 33.5986C36.0996 33.6302 35.7753 33.7539 35.5011 33.9565C35.1586 34.2042 34.7536 34.3511 34.332 34.3809C33.9475 34.3808 33.5701 34.2779 33.2389 34.0826V35.8388C33.3031 35.8754 33.3642 35.9136 33.4234 35.9497C33.6503 36.1555 33.9451 36.2705 34.2513 36.2727C34.5576 36.2749 34.854 36.1642 35.0838 35.9616C35.4812 35.6778 35.9513 35.5134 36.439 35.4878C36.8707 35.5009 37.2886 35.643 37.6389 35.8957C37.9008 36.0945 38.2181 36.207 38.5467 36.2178C38.8557 36.2082 39.1485 36.0778 39.3625 35.8548V35.8555Z" fill="#00578E"/>
<path d="M34.332 39.8574C33.9477 39.8568 33.5705 39.7542 33.2389 39.5599V41.709C33.5457 41.4106 33.9227 41.1943 34.3351 41.08L34.9469 40.8891C35.4598 40.7267 36.1616 40.5055 37.2687 40.1657C37.5795 40.0718 37.877 39.9386 38.154 39.7693C37.8171 39.6958 37.4976 39.5579 37.2132 39.3629C36.99 39.1912 36.7202 39.0907 36.439 39.0747C36.0995 39.107 35.7753 39.2312 35.5011 39.434C35.1585 39.6815 34.7536 39.8284 34.332 39.8579V39.8574Z" fill="#00578E"/>
<path d="M39.3625 33.1547C39.5878 32.9465 39.86 32.7955 40.1559 32.7144C40.1683 32.4897 40.1812 32.2639 40.1947 32.0372C37.9052 31.5631 35.5765 31.3039 33.2389 31.2627V33.1396C33.3031 33.1754 33.3642 33.2133 33.4234 33.2504C33.6501 33.4566 33.9449 33.5719 34.2513 33.5741C34.5578 33.5763 34.8542 33.4653 35.0838 33.2623C35.4811 32.9782 35.9513 32.8135 36.439 32.7878C36.8708 32.8012 37.2887 32.9436 37.6389 33.1966C37.901 33.3949 38.2182 33.507 38.5467 33.5175C38.8556 33.5081 39.1486 33.3779 39.3625 33.1548V33.1547Z" fill="#0078AE"/>
<path d="M33.239 36.7845V38.615C33.3032 38.6508 33.3643 38.6892 33.4236 38.7252C33.6504 38.931 33.945 39.0461 34.2513 39.0485C34.5575 39.0509 34.8539 38.9404 35.0839 38.7382C35.4812 38.454 35.9514 38.2892 36.4391 38.2633C36.871 38.2764 37.289 38.4189 37.639 38.6721C37.9012 38.8703 38.2184 38.9823 38.5468 38.9929C38.7967 38.9937 39.0383 38.9038 39.2268 38.7398C39.6476 38.085 39.8864 37.3301 39.9187 36.5525C39.9203 36.5167 39.9234 36.4792 39.9263 36.4441L39.8729 36.4859C39.5159 36.8288 39.0417 37.0229 38.5467 37.0289C38.068 37.02 37.6031 36.8665 37.2132 36.5885C36.9903 36.4161 36.7204 36.3152 36.439 36.2993C36.0993 36.3308 35.7748 36.4553 35.5011 36.6591C35.1584 36.9063 34.7535 37.0529 34.332 37.0825C33.9476 37.0822 33.5702 36.9792 33.2389 36.7843L33.239 36.7845Z" fill="#0078AE"/>
<path d="M25.7765 31.5596C25.677 29.732 25.5889 27.8928 25.5367 26.4401C27.9896 25.9087 30.4903 25.6289 33 25.605C35.51 25.6289 38.0109 25.9087 40.4641 26.4401C40.4115 27.8928 40.3234 29.7326 40.2234 31.5596C37.8463 31.0691 35.4271 30.811 33 30.7887C30.5729 30.811 28.1537 31.0692 25.7765 31.5596Z" fill="#00578E"/>
<path d="M27.2317 27.6484L27.314 27.2547L26.949 27.0889L27.3462 27.0471L27.388 26.6475L27.5502 27.0149L27.9391 26.9338L27.6433 27.2022L27.8437 27.5529L27.4977 27.3489L27.2317 27.6484Z" fill="white"/>
<path d="M29.6661 27.3249L29.3297 27.1066L29.0493 27.3953L29.1495 27.004L28.7916 26.8227L29.1901 26.7988L29.2497 26.4004L29.3965 26.7762L29.7889 26.7106L29.4823 26.967L29.6661 27.3249Z" fill="white"/>
<path d="M31.4913 27.1841L31.1668 26.9479L30.8734 27.2223L30.9927 26.8369L30.6455 26.6377L31.044 26.6341L31.1239 26.2393L31.2503 26.621L31.6452 26.5769L31.3255 26.8166L31.4913 27.1841Z" fill="white"/>
<path d="M33.3171 27.1448L33.0069 26.8907L32.698 27.1448L32.8411 26.7678L32.5071 26.5471L32.9043 26.5674L33.0069 26.1797L33.1119 26.5674L33.5092 26.5471L33.1739 26.7678L33.3171 27.1448Z" fill="white"/>
<path d="M38.5181 27.3514L38.1721 27.5554L38.3713 27.2046L38.0767 26.9362L38.4644 27.0173L38.629 26.6499L38.6696 27.0495L39.0656 27.0913L38.7006 27.2571L38.7841 27.6508L38.5181 27.3514Z" fill="white"/>
<path d="M36.5309 26.9682L36.2207 26.7129L36.6144 26.7762L36.7599 26.4004L36.8208 26.7988L37.218 26.8215L36.8625 27.004L36.9627 27.3941L36.6824 27.1078L36.346 27.3273L36.5309 26.9682Z" fill="white"/>
<path d="M34.6896 26.8181L34.3687 26.5783L34.7659 26.6225L34.8924 26.2407L34.9723 26.6356L35.3707 26.6404L35.0236 26.8384L35.1429 27.2237L34.8482 26.9493L34.5237 27.1855L34.6896 26.8181Z" fill="white"/>
<path d="M27.4992 30.6044L27.5839 30.2107L27.2201 30.0425L27.6173 30.0032L27.6615 29.6035L27.8213 29.9733L28.2114 29.8946L27.9132 30.1606L28.1112 30.5125L27.7665 30.3074L27.4992 30.6044Z" fill="white"/>
<path d="M29.866 30.3051L29.5308 30.0832L29.2492 30.3683L29.3518 29.9794L28.9963 29.7957L29.396 29.7742L29.458 29.377L29.6012 29.7527L29.9948 29.6919L29.6847 29.9448L29.866 30.3051Z" fill="white"/>
<path d="M31.6198 30.177L31.2965 29.9396L31.003 30.2116L31.1235 29.8274L30.7764 29.627L31.176 29.6246L31.2571 29.231L31.3812 29.6127L31.7773 29.5698L31.4564 29.8083L31.6198 30.177Z" fill="white"/>
<path d="M33.3771 30.145L33.067 29.8897L32.7568 30.145L32.9011 29.7668L32.5659 29.5473L32.9644 29.5676L33.067 29.1787L33.1707 29.5676L33.568 29.5473L33.234 29.7668L33.3771 30.145Z" fill="white"/>
<path d="M38.3732 30.3277L38.0285 30.5328L38.2265 30.1821L37.9307 29.9137L38.3196 29.9936L38.4806 29.625L38.5236 30.0246L38.9208 30.0652L38.557 30.2322L38.6417 30.6259L38.3732 30.3277Z" fill="white"/>
<path d="M36.452 29.959L36.1431 29.7037L36.5367 29.7669L36.6811 29.3911L36.7419 29.7896L37.1404 29.811L36.7837 29.9947L36.8863 30.3848L36.6047 30.0985L36.2683 30.318L36.452 29.959Z" fill="white"/>
<path d="M34.679 29.8159L34.3593 29.5774L34.7553 29.6215L34.8818 29.2397L34.9617 29.6334L35.3601 29.6382L35.013 29.8374L35.1323 30.2216L34.8388 29.9484L34.5143 30.1834L34.679 29.8159Z" fill="white"/>
<path d="M28.3695 28.8579L28.4638 28.4666L28.1035 28.2901L28.5008 28.2603L28.5545 27.8618L28.706 28.234L29.0973 28.1648L28.7942 28.4249L28.9827 28.7804L28.6439 28.5669L28.3695 28.8579Z" fill="white"/>
<path d="M26.6242 29.1356L26.7029 28.7407L26.3367 28.5785L26.7339 28.5332L26.7721 28.1323L26.9379 28.4998L27.3256 28.4151L27.0322 28.6859L27.235 29.0354L26.8878 28.8338L26.6242 29.1356Z" fill="white"/>
<path d="M30.7318 28.6123L30.4013 28.3844L30.1138 28.6636L30.2248 28.2758L29.874 28.0838L30.2725 28.0718L30.344 27.6758L30.4789 28.0551L30.8737 28.0027L30.5588 28.2484L30.7318 28.6123Z" fill="white"/>
<path d="M32.4794 28.5286L32.1632 28.284L31.8614 28.5489L31.9915 28.1671L31.6503 27.9584L32.0487 27.9655L32.1394 27.5742L32.2551 27.9595L32.6524 27.9261L32.3255 28.1564L32.4794 28.5286Z" fill="white"/>
<path d="M34.2296 28.5513L33.9289 28.2865L33.6104 28.531L33.7667 28.1588L33.4398 27.9274L33.8359 27.9608L33.9528 27.5767L34.0435 27.968L34.4407 27.9608L34.0995 28.1696L34.2296 28.5513Z" fill="white"/>
<path d="M39.2111 28.8487L38.8615 29.0444L39.0679 28.6984L38.778 28.424L39.1657 28.5123L39.3351 28.1484L39.3685 28.5493L39.7646 28.5994L39.396 28.7568L39.4711 29.1529L39.2111 28.8487Z" fill="white"/>
<path d="M37.3003 28.4366L36.9961 28.1754L37.3886 28.2469L37.5401 27.8735L37.5938 28.2732L37.991 28.3042L37.6307 28.4796L37.725 28.8708L37.4494 28.5786L37.1094 28.7921L37.3003 28.4366Z" fill="white"/>
<path d="M35.5336 28.2567L35.2198 28.0086L35.6147 28.0623L35.7495 27.6841L35.8211 28.0801L36.2195 28.0933L35.8676 28.2841L35.9786 28.6719L35.6911 28.3915L35.3606 28.6194L35.5336 28.2567Z" fill="white"/>
<path d="M57.458 21.1372C58.367 20.7384 59.4086 20.9212 59.6736 21.5232C59.9386 22.1316 59.3679 23.0216 58.4585 23.42C57.5436 23.821 56.5003 23.6396 56.2336 23.0314C55.9703 22.4286 56.5412 21.5394 57.458 21.1377V21.1372ZM58.8299 24.2689C59.2139 24.0832 59.5348 23.7887 59.7527 23.422C59.9706 23.0554 60.0759 22.6327 60.0554 22.2067C60.0349 21.7807 59.8897 21.37 59.6376 21.0259C59.3856 20.6818 59.0379 20.4194 58.6379 20.2714C58.2379 20.1234 57.8032 20.0962 57.3879 20.1934C56.9726 20.2905 56.595 20.5076 56.3021 20.8177C56.0092 21.1278 55.814 21.5172 55.7407 21.9373C55.6674 22.3575 55.7193 22.79 55.8899 23.1809C56.0098 23.4468 56.1814 23.6863 56.3946 23.8853C56.6079 24.0844 56.8586 24.239 57.1322 24.3402C57.4058 24.4415 57.6967 24.4873 57.9882 24.4751C58.2796 24.4628 58.5657 24.3927 58.8299 24.2689Z" fill="#00578E"/>
<path d="M57.2241 27.2669L56.7851 25.5335L57.0523 25.4655L57.1752 25.9499L60.8459 25.0182L60.7242 24.5338L60.9915 24.4658L61.6583 27.0915L61.8361 27.0462L61.9244 27.391L60.9103 27.6474L60.8245 27.3098L61.2825 27.1929L60.9461 25.8675L59.4418 26.2493L59.7019 27.2693L60.1349 27.1595L60.228 27.5019L58.973 27.8204L58.8787 27.478L59.3261 27.3647L59.0672 26.3447L57.384 26.773L57.4913 27.1989L57.2241 27.2669Z" fill="#00578E"/>
<path d="M5.88797 22.613L5.72966 23.1416L8.09948 23.848C8.39726 23.8996 8.67129 24.0435 8.88285 24.2593C9.09441 24.4751 9.23281 24.752 9.27848 25.0507C9.32263 25.3766 9.29631 25.7081 9.20129 26.0229C9.16947 26.2385 9.09213 26.4449 8.97439 26.6284C8.85666 26.8119 8.70124 26.9682 8.51844 27.087C8.33565 27.2058 8.12968 27.2843 7.91421 27.3173C7.69873 27.3504 7.47869 27.3372 7.2687 27.2787L4.72257 26.52L4.57941 26.9987L4.31458 26.9201L4.84127 25.1554L5.10587 25.2343L4.9645 25.7073L7.31463 26.4078C7.95167 26.5973 8.27496 26.5706 8.54135 26.3005C8.66897 26.1608 8.76313 25.9939 8.81668 25.8124C8.88001 25.6542 8.90743 25.4839 8.89696 25.3138C8.88649 25.1437 8.8384 24.978 8.75615 24.8288C8.6739 24.6795 8.55954 24.5504 8.42133 24.4506C8.28312 24.3509 8.1245 24.2831 7.95692 24.2522L5.61335 23.5537L5.45767 24.077L5.18663 23.996L5.62277 22.5342L5.88785 22.613H5.88797Z" fill="#00578E"/>
<path d="M10.0522 23.6369C10.0185 23.7173 9.96176 23.7858 9.88911 23.8339C9.81646 23.8819 9.73119 23.9074 9.64408 23.907C9.55697 23.9066 9.47192 23.8804 9.39969 23.8317C9.32747 23.783 9.2713 23.714 9.23829 23.6334C9.20529 23.5527 9.19692 23.4642 9.21425 23.3788C9.23158 23.2934 9.27384 23.2151 9.33567 23.1537C9.3975 23.0924 9.47614 23.0507 9.56164 23.034C9.64714 23.0174 9.73567 23.0264 9.81603 23.06C9.92376 23.1053 10.0091 23.1915 10.0534 23.2996C10.0977 23.4078 10.0973 23.5291 10.0522 23.6369Z" fill="#00578E"/>
<path d="M10.8709 21.76L10.6933 22.0757L9.66208 21.4953L9.83948 21.1795L10.263 21.4181C10.5595 21.3223 10.808 21.1163 10.957 20.8426C11.0076 20.7735 11.0435 20.6948 11.0626 20.6113C11.0817 20.5278 11.0836 20.4413 11.0681 20.3571C11.0527 20.2729 11.0202 20.1927 10.9727 20.1214C10.9252 20.0502 10.8637 19.9893 10.7919 19.9427C10.5341 19.7977 10.2572 19.8612 9.61377 20.2007C9.30169 20.4094 8.95536 20.5617 8.59057 20.6506C8.32491 20.6956 8.0519 20.644 7.82099 20.5051C7.67224 20.4231 7.54259 20.3104 7.44058 20.1746C7.33856 20.0388 7.26652 19.8829 7.22919 19.7171C7.19187 19.5514 7.19011 19.3797 7.22403 19.2132C7.25796 19.0468 7.32679 18.8894 7.426 18.7515C7.54269 18.5369 7.70432 18.3499 7.89984 18.2034L7.72842 18.1065L7.90247 17.7974L8.88212 18.3483L8.70807 18.6577L8.31261 18.4357C8.08058 18.5349 7.88655 18.706 7.75907 18.9238C7.71795 18.988 7.69008 19.0598 7.67711 19.135C7.66413 19.2102 7.66631 19.2872 7.68351 19.3615C7.70071 19.4359 7.7326 19.506 7.77729 19.5678C7.82197 19.6297 7.87857 19.682 7.94374 19.7216C8.17363 19.851 8.39027 19.7995 9.04997 19.4458C9.36993 19.2788 9.56605 19.1705 9.64777 19.1334C9.8263 19.0492 10.0198 19.0016 10.217 18.9933C10.4473 18.9867 10.6752 19.042 10.8769 19.1534C11.0785 19.2647 11.2467 19.4281 11.3638 19.6264C11.481 19.8248 11.5429 20.0509 11.543 20.2813C11.5431 20.5117 11.4815 20.7379 11.3646 20.9364C11.2066 21.2354 10.9655 21.4822 10.6703 21.6469L10.871 21.76H10.8709Z" fill="#00578E"/>
<path d="M12.5951 18.782C12.5951 18.8669 12.5699 18.95 12.5228 19.0206C12.4756 19.0912 12.4085 19.1463 12.33 19.1788C12.2515 19.2113 12.1652 19.2198 12.0819 19.2032C11.9986 19.1867 11.9221 19.1457 11.862 19.0857C11.8019 19.0256 11.761 18.9491 11.7445 18.8658C11.7279 18.7825 11.7364 18.6961 11.7689 18.6177C11.8014 18.5392 11.8564 18.4721 11.9271 18.4249C11.9977 18.3777 12.0807 18.3525 12.1657 18.3525C12.2221 18.3523 12.2781 18.3633 12.3303 18.3848C12.3825 18.4063 12.4299 18.4379 12.4698 18.4778C12.5098 18.5178 12.5414 18.5652 12.5629 18.6174C12.5844 18.6696 12.5954 18.7255 12.5951 18.782Z" fill="#00578E"/>
<path d="M22.7708 10.3254L19.9888 11.7581L19.8624 11.5112L20.3061 11.2833L18.5716 7.91558L18.1278 8.14462L18.0013 7.89768L20.4099 6.6582L20.3264 6.49476L20.6426 6.33252L21.1197 7.26183L20.8108 7.42169L20.5936 7.00058L19.378 7.62569L20.0878 9.00713L21.0231 8.52518L20.8179 8.12792L21.1317 7.95852L21.7246 9.11092L21.412 9.27913L21.2009 8.86994L20.2656 9.3519L21.0088 10.7954L22.2781 10.1416L22.055 9.70979L22.37 9.54754L22.7708 10.3254Z" fill="#00578E"/>
<path d="M25.4475 9.3571L23.6374 9.95704L23.55 9.69459L24.0249 9.53783L22.8328 5.94237L22.3585 6.09937L22.2723 5.83692L24.1634 5.20978C24.3221 5.13837 24.4941 5.10164 24.6681 5.10205C24.8421 5.10247 25.014 5.14 25.1723 5.21216C25.3306 5.28432 25.4717 5.38944 25.5861 5.52048C25.7005 5.65153 25.7857 5.80549 25.8358 5.97208C25.935 6.31704 25.8942 6.6872 25.7223 7.0023C25.5504 7.3174 25.2612 7.55204 24.9175 7.65534C24.8041 7.6927 24.687 7.71766 24.5682 7.72978L24.4665 7.42403C24.5265 7.4197 24.5855 7.40705 24.6419 7.38645C25.0662 7.24568 25.2013 6.86155 25.0167 6.30611C24.8234 5.71917 24.4908 5.48965 24.0411 5.63805L23.6665 5.76259L24.8296 9.26989L25.3604 9.09405L25.4473 9.3565L25.4475 9.3571Z" fill="#00578E"/>
<path d="M27.5939 6.9633L27.9678 5.22981L28.8639 6.74284L27.5939 6.9633ZM30.7928 7.89655L30.521 7.94427L28.1948 4.0835L27.7992 4.15185L26.8468 8.58179L26.4447 8.6511L26.4924 8.92321L27.8335 8.69082L27.7858 8.41883L27.2678 8.50914L27.5064 7.38608L29.0805 7.11278L29.6645 8.09243L29.2112 8.17081L29.2578 8.44305L30.8397 8.16819L30.7928 7.89595V7.89655Z" fill="#00578E"/>
<path d="M32.6666 4.20235L33.0811 4.20307C33.5487 4.20462 33.8179 4.50763 33.8158 5.03385C33.8284 5.14274 33.8181 5.25305 33.7857 5.35776C33.7533 5.46246 33.6994 5.55927 33.6275 5.64202C33.5557 5.72476 33.4673 5.79162 33.3682 5.83835C33.269 5.88508 33.1612 5.91064 33.0516 5.91341L32.6626 5.91162L32.6662 4.20235H32.6666ZM35.3348 7.89814L35.065 7.89754C34.9338 7.89754 34.8541 7.8379 34.7038 7.6073L33.7733 6.17133C34.0408 6.12033 34.281 5.975 34.4504 5.76177C34.6198 5.54855 34.707 5.2816 34.6961 5.00951C34.7036 4.85371 34.6791 4.69803 34.6242 4.55204C34.5693 4.40605 34.4851 4.27284 34.3768 4.1606C34.2233 4.03192 34.0447 3.93658 33.8524 3.88066C33.6601 3.82473 33.4582 3.80944 33.2597 3.83576L31.3193 3.83087V4.10692L31.819 4.10799L31.8102 7.89599L31.31 7.89444L31.3091 8.17085L33.1509 8.17526V7.89886L32.6574 7.89814L32.6615 6.24112L32.8396 6.24172L33.8217 7.78934C34.0449 8.1384 34.1106 8.17753 34.4982 8.17884L35.3333 8.18039L35.3347 7.89814H35.3348Z" fill="#00578E"/>
<path d="M38.3088 8.70306L36.2211 8.34994L36.2664 8.07794L36.8951 8.18412L37.5083 4.55872L36.3857 4.37023L36.295 4.90825L35.9384 4.8486L36.1245 3.74512L36.4823 3.80596L36.4513 3.98729L39.5244 4.50742L39.5554 4.3249L39.9109 4.38574L39.7248 5.48803L39.3681 5.42719L39.46 4.89036L38.3446 4.70187L37.7326 8.32489L38.3541 8.43106L38.3088 8.70306Z" fill="#00578E"/>
<path d="M44.4531 10.7782L42.6326 10.072L42.7316 9.81429L43.2458 10.0147L44.2729 7.36514L41.7737 9.80952L41.4265 6.32488L40.4197 8.91838L40.9362 9.1176L40.836 9.37528L39.4188 8.82652L39.519 8.56884L40.0331 8.76806L41.4038 5.23691L40.8885 5.03768L40.9875 4.77881L42.0731 5.20112L42.4214 8.61537L44.8086 6.26166L46.0218 6.73168L45.9216 6.98936L45.4074 6.78894L44.0379 10.3201L44.5533 10.5205L44.4531 10.7782Z" fill="#00578E"/>
<path d="M47.6537 12.8723L45.0148 11.1879L45.164 10.9541L45.5851 11.2237L47.6238 8.03132L47.2027 7.76171L47.3506 7.53027L49.634 8.98807L49.733 8.83298L50.0324 9.02386L49.4705 9.90546L49.1759 9.71697L49.4312 9.31852L48.2788 8.58246L47.4437 9.88995L48.3289 10.4566L48.571 10.0796L48.8741 10.2645L48.1762 11.3573L47.8732 11.1712L48.1213 10.7835L47.2337 10.2168L46.3605 11.5851L47.563 12.3534L47.8242 11.9442L48.1237 12.1351L47.6537 12.8723Z" fill="#00578E"/>
<path d="M18.4862 10.182C18.3162 9.94944 18.1013 9.75323 17.8542 9.60499C17.6071 9.45674 17.3329 9.35946 17.0476 9.31888C16.7624 9.2783 16.4719 9.29524 16.1933 9.3687C15.9147 9.44216 15.6536 9.57066 15.4254 9.74662L13.7721 10.9614L13.9348 11.1841L14.3371 10.8884L16.5754 13.935C16.6828 13.9763 16.7873 14.0156 16.8914 14.0551L17.989 13.2489C18.2231 13.0948 18.423 12.894 18.5762 12.6593C18.7295 12.4245 18.8327 12.1607 18.8795 11.8843C18.9326 11.5888 18.9251 11.2855 18.8574 10.993C18.7897 10.7004 18.6633 10.4247 18.4858 10.1825L18.4862 10.182ZM17.6426 13.0541L17.2132 13.3696L15.076 10.4602L15.5261 10.1294C15.9023 9.929 16.3408 9.87966 16.7522 9.99148C17.1635 10.1033 17.5167 10.3679 17.7396 10.7312C17.8878 10.889 18.003 11.0749 18.0785 11.2778C18.154 11.4807 18.1882 11.6967 18.1792 11.913C18.1701 12.1293 18.1181 12.3416 18.026 12.5376C17.9339 12.7335 17.8036 12.9091 17.6428 13.0541H17.6426Z" fill="#00578E"/>
<path d="M53.2568 11.971L53.0707 12.1759L53.4546 12.5258L51.5981 14.5617L52.0665 10.8859L51.1002 10.0044L50.9146 10.2083L51.2642 10.5269L51.1926 10.9168L48.8664 13.4673L48.4637 13.0996L48.2773 13.3036L49.3748 14.3057L49.5604 14.101L49.1774 13.7511L51.1135 11.6286L50.7005 15.0003C51.1013 14.8961 51.53 14.7811 51.9943 14.6514C52.0325 14.6412 52.068 14.6303 52.1057 14.6203L53.7604 12.8047L54.1694 13.1765L54.3564 12.9728L53.2571 11.9707L53.2568 11.971Z" fill="#00578E"/>
<path d="M57.6837 16.7526L57.5376 16.8643L55.6462 14.3874L55.7921 14.2758L55.5718 13.9878L54.6836 14.6663L54.9037 14.9541L55.3371 14.623L56.0273 15.5269L53.1068 17.7578L52.9558 17.5606C52.8735 17.6066 52.7887 17.6479 52.7018 17.6843L53.7853 19.1013L54.0053 18.9343L53.6217 18.4324L56.5426 16.2016L57.2285 17.1003L56.7948 17.4319L57.0155 17.7194L57.9032 17.0405L57.6835 16.7533L57.6837 16.7526Z" fill="#00578E"/>
<path d="M38.456 61.9044L38.1033 61.9819L37.8486 60.8258L38.2033 60.748L38.3073 61.2234C38.5759 61.3807 38.8948 61.4289 39.1979 61.3579C39.2833 61.3498 39.366 61.3243 39.4412 61.283C39.5163 61.2418 39.5822 61.1856 39.6349 61.118C39.6876 61.0503 39.7259 60.9726 39.7475 60.8897C39.7691 60.8067 39.7735 60.7202 39.7605 60.6355C39.6971 60.3463 39.465 60.1822 38.7831 59.9271C38.4197 59.833 38.0756 59.6759 37.7664 59.463C37.5557 59.2949 37.4127 59.0566 37.3634 58.7916C37.3257 58.6259 37.3236 58.4542 37.3572 58.2876C37.3908 58.121 37.4593 57.9635 37.5582 57.8253C37.6571 57.6871 37.7841 57.5715 37.931 57.486C38.0778 57.4005 38.2411 57.3471 38.4101 57.3293C38.648 57.274 38.895 57.2699 39.1346 57.3174L39.0922 57.1256L39.4388 57.0498L39.6801 58.1486L39.3331 58.2244L39.2356 57.7814C39.0074 57.6741 38.7508 57.6427 38.5034 57.6917C38.4279 57.7037 38.3555 57.7308 38.2906 57.7712C38.2257 57.8116 38.1695 57.8646 38.1254 57.9271C38.0814 57.9896 38.0502 58.0603 38.0339 58.135C38.0176 58.2097 38.0164 58.2869 38.0304 58.3621C38.087 58.6183 38.269 58.7467 38.9718 59.0035C39.3098 59.1319 39.5216 59.2056 39.6029 59.2421C39.7848 59.319 39.9493 59.432 40.0864 59.5741C40.2446 59.7418 40.355 59.9487 40.406 60.1735C40.4571 60.3983 40.447 60.6327 40.3767 60.8522C40.3065 61.0717 40.1786 61.2684 40.0066 61.4218C39.8345 61.5752 39.6245 61.6796 39.3983 61.7243C39.0704 61.8055 38.726 61.7895 38.407 61.6784L38.456 61.9042V61.9044Z" fill="#00578E"/>
<path d="M45.1413 59.8023L42.2281 60.9463L42.1267 60.6898L42.592 60.5073L41.2081 56.9797L40.7417 57.1634L40.6415 56.9069L43.1646 55.9156L43.0954 55.7438L43.427 55.6138L43.8088 56.5884L43.4843 56.7161L43.3125 56.2759L42.0372 56.7757L42.6051 58.2192L43.5845 57.8351L43.4211 57.4187L43.7503 57.2827L44.2227 58.4888L43.8959 58.6248L43.7277 58.1965L42.7471 58.5807L43.34 60.0921L44.6689 59.5708L44.49 59.1175L44.8216 58.9886L45.1413 59.8023Z" fill="#00578E"/>
<path d="M49.5237 57.1324C49.2379 57.5216 48.8775 57.8501 48.4635 58.0987C48.2128 58.2694 47.9303 58.3877 47.6329 58.4467C47.3354 58.5056 47.0291 58.5039 46.7323 58.4417C46.4355 58.3795 46.1543 58.258 45.9055 58.0845C45.6568 57.911 45.4456 57.6892 45.2846 57.4322C45.1237 57.1751 45.0162 56.8883 44.9687 56.5888C44.9212 56.2893 44.9347 55.9832 45.0082 55.689C45.0818 55.3948 45.214 55.1185 45.3969 54.8766C45.5798 54.6347 45.8096 54.4322 46.0726 54.2812C46.392 54.0749 46.7543 53.9443 47.1319 53.8994L46.9888 53.6632L47.298 53.4756L47.9086 54.4821L47.5996 54.6702L47.3815 54.3098C47.0438 54.2557 46.6979 54.3258 46.4079 54.5073C46.2201 54.6347 46.0607 54.7996 45.9396 54.9915C45.8185 55.1834 45.7383 55.3983 45.704 55.6226C45.6697 55.8469 45.6821 56.0759 45.7405 56.2953C45.7988 56.5146 45.9017 56.7195 46.0429 56.8972C46.145 57.1049 46.2874 57.2902 46.4618 57.4424C46.6363 57.5945 46.8392 57.7104 47.0588 57.7834C47.2785 57.8564 47.5104 57.885 47.7412 57.8675C47.972 57.85 48.197 57.7867 48.4031 57.6815C48.6722 57.5243 48.8857 57.2874 49.0142 57.0035L48.7553 56.5766L49.0704 56.3857L49.5237 57.1324Z" fill="#00578E"/>
<path d="M51.5003 50.3453L51.0924 50.7176L52.7594 52.5449C52.988 52.7424 53.1487 53.0067 53.2188 53.3005C53.2889 53.5943 53.2648 53.9027 53.15 54.182C53.0202 54.4838 52.8269 54.7541 52.5833 54.9745C52.4451 55.1433 52.2725 55.2806 52.0771 55.3775C51.8817 55.4743 51.6678 55.5284 51.4499 55.5362C51.2319 55.5439 51.0147 55.5052 50.8129 55.4225C50.6111 55.3398 50.4291 55.2151 50.2793 55.0566L48.4885 53.0936L48.1198 53.4308L47.9341 53.2271L49.2934 51.9857L49.4795 52.1898L49.1145 52.5219L50.7686 54.3352C51.2167 54.8251 51.5082 54.9689 51.8753 54.875C52.0568 54.821 52.2235 54.7263 52.3629 54.5981C52.4987 54.4952 52.61 54.3635 52.6887 54.2123C52.7674 54.0612 52.8116 53.8945 52.8181 53.7242C52.8245 53.5539 52.7931 53.3843 52.7261 53.2276C52.659 53.071 52.558 52.9312 52.4304 52.8183L50.7815 51.0109L50.3774 51.3797L50.1866 51.1697L51.3138 50.1421L51.4999 50.3457L51.5003 50.3453Z" fill="#00578E"/>
<path d="M58.8887 46.51L58.0107 48.1288L57.7685 47.9976L58.0059 47.5574L54.6764 45.7537L54.4366 46.1927L54.1956 46.0603L55.0724 44.4414L55.3146 44.5738L55.0796 45.0081L58.4103 46.8118L58.6454 46.3788L58.8887 46.51Z" fill="#00578E"/>
<path d="M60.5693 42.5746L59.8237 44.5549L59.566 44.4582L59.7903 43.8618L56.3498 42.5662L55.9477 43.6315L56.4595 43.8224L56.3319 44.1624L55.2856 43.7675L55.4133 43.4299L55.5851 43.4943L56.6838 40.5775L56.5108 40.5119L56.6385 40.1743L57.6859 40.568L57.5582 40.9068L57.0476 40.7135L56.6492 41.7729L60.0885 43.0684L60.3104 42.4779L60.5693 42.5746Z" fill="#00578E"/>
<path d="M61.7307 37.7357L61.3775 39.5431L61.1067 39.4906L61.201 39.005L59.4199 38.6579L57.2344 39.5574L57.1545 39.9642L56.8837 39.9105L57.2356 38.1044L57.5076 38.1568L57.4145 38.634L59.0071 37.9946L57.7605 36.8601L57.6531 37.4077L57.3835 37.3552L57.677 35.8521L57.9466 35.9057L57.8571 36.3698L59.4139 37.7918L61.3632 38.1736L61.4599 37.6832L61.7307 37.7357Z" fill="#00578E"/>
<path d="M57.3064 48.8794L57.1456 49.0964C57.0672 49.2016 56.9731 49.2305 56.6969 49.214L54.9889 49.1088C55.0694 48.9131 55.0977 48.6999 55.071 48.49C55.0444 48.2801 54.9637 48.0807 54.8369 47.9113C54.7102 47.7419 54.5416 47.6084 54.3477 47.5237C54.1538 47.4389 53.9413 47.406 53.7308 47.428C53.3992 47.477 53.1425 47.6796 52.8052 48.1339L51.6497 49.6911L51.8699 49.8561L52.169 49.4549L55.2111 51.7129L54.9128 52.114L55.1345 52.2785L56.2328 50.8008L56.0106 50.6363L55.7172 51.0322L54.3864 50.0432L54.4921 49.9015L56.3205 50.031C56.7335 50.0588 56.8041 50.0294 57.0363 49.7179L57.5349 49.0476L57.307 48.879L57.3064 48.8794ZM52.7493 48.8293L52.9953 48.4968C53.055 48.4091 53.1334 48.3357 53.2249 48.282C53.3165 48.2282 53.4188 48.1955 53.5245 48.1861C53.6302 48.1767 53.7367 48.1909 53.8362 48.2277C53.9358 48.2645 54.0259 48.3229 54.1002 48.3988C54.1951 48.4536 54.2776 48.5275 54.3424 48.6159C54.4072 48.7042 54.453 48.8051 54.4768 48.9121C54.5006 49.0191 54.5019 49.1298 54.4807 49.2374C54.4595 49.3449 54.4161 49.4468 54.3534 49.5367L54.1219 49.8482L52.7493 48.8293Z" fill="#00578E"/>
<path d="M5.19304 41.8041L4.75522 40.0159L5.02364 39.9503L5.14055 40.4298L6.82143 40.0194L6.31323 37.9425L4.63354 38.3529L4.75045 38.8324L4.48203 38.8981L4.04541 37.1098L4.31383 37.043L4.43193 37.5297L8.11221 36.6303L7.99291 36.1447L8.26133 36.0791L8.69795 37.8673L8.43073 37.933L8.31382 37.4534L6.6902 37.8506L7.19721 39.9264L8.82083 39.5303L8.70392 39.052L8.97233 38.9852L9.40895 40.7746L9.14054 40.839L9.02244 40.3547L5.34216 41.2542L5.46265 41.7397L5.19304 41.8041Z" fill="#00578E"/>
<path d="M7.70247 42.8048C8.6059 42.3928 9.64997 42.5609 9.92328 43.1591C10.1977 43.7639 9.63971 44.661 8.73533 45.074C7.8257 45.4876 6.78162 45.3189 6.50605 44.7161C6.23405 44.1164 6.79236 43.2203 7.70247 42.8046V42.8048ZM9.12054 45.9166C9.50186 45.7255 9.81855 45.4264 10.0312 45.0567C10.2439 44.6869 10.3431 44.2628 10.3165 43.8371C10.2899 43.4114 10.1388 43.0028 9.8818 42.6624C9.62484 42.3219 9.27342 42.0646 8.8713 41.9223C8.46917 41.7801 8.0341 41.7592 7.62021 41.8624C7.20633 41.9655 6.83192 42.1881 6.54358 42.5024C6.25524 42.8168 6.0657 43.2089 5.99855 43.6302C5.9314 44.0514 5.98961 44.4831 6.16594 44.8714C6.28958 45.1356 6.46454 45.3726 6.68064 45.5685C6.89673 45.7645 7.14964 45.9155 7.42465 46.0127C7.69965 46.11 7.99126 46.1516 8.28249 46.1351C8.57372 46.1186 8.85876 46.0443 9.12102 45.9166H9.12054Z" fill="#00578E"/>
<path d="M10.7909 52.1638L9.64323 50.5831L9.8675 50.4209L10.192 50.8682L12.4908 49.1993L9.06464 49.8972L10.6608 46.7812L8.40971 48.4143L8.73539 48.8617L8.51111 49.0251L7.61877 47.7952L7.84305 47.6329L8.16754 48.0791L11.2322 45.8542L10.9078 45.4081L11.1308 45.2446L11.8144 46.1859L10.2564 49.2446L13.5382 48.5587L14.3029 49.6132L14.0798 49.7767L13.7554 49.3293L10.6895 51.5542L11.0151 52.0027L10.7909 52.1638Z" fill="#00578E"/>
<path d="M14.2099 55.5266L11.9087 53.4067L12.096 53.2027L12.4634 53.5415L15.0307 50.756L14.6632 50.4184L14.8493 50.2144L16.8428 52.0515L16.9668 51.9155L17.2293 52.1565L16.5195 52.9248L16.2642 52.6886L16.5839 52.3414L15.5782 51.4133L14.5272 52.5549L15.3015 53.2683L15.6045 52.9391L15.8693 53.1741L14.9901 54.1273L14.7253 53.8922L15.0378 53.5523L14.2636 52.8401L13.1625 54.0342L14.2123 55.0017L14.5416 54.6438L14.8028 54.8836L14.2099 55.5266Z" fill="#00578E"/>
<path d="M18.1259 58.2128L15.5503 56.4807L15.7042 56.2492L16.1193 56.5296L18.2333 53.3861L17.8193 53.107L17.9732 52.8779L19.5014 53.9063L19.3475 54.1353L18.9371 53.8597L16.8852 56.9101L18.0472 57.6927L18.3203 57.2883L18.6138 57.4875L18.1259 58.2128Z" fill="#00578E"/>
<path d="M20.7509 57.6526L22.0371 56.4316L21.9244 58.1873L20.751 57.653L20.7509 57.6526ZM22.8668 60.228L22.6155 60.1132L22.8717 55.6132L22.5065 55.4473L19.2221 58.5688L18.8513 58.3997L18.7369 58.6513L19.9754 59.2153L20.0899 58.9633L19.6109 58.7457L20.441 57.9532L21.8964 58.6147L21.826 59.7537L21.407 59.5639L21.2929 59.8144L22.7523 60.479L22.8676 60.2285L22.8668 60.228Z" fill="#00578E"/>
<path d="M27.416 61.7787L26.9686 61.6714L25.4929 58.0042L24.8237 60.7993L25.3295 60.9198L25.2651 61.1894L23.8192 60.8434L23.8836 60.5738L24.4157 60.7015L25.2186 57.3445L25.0921 56.9687L24.6316 56.859L24.696 56.5894L25.9689 56.8948L27.3349 60.3388L27.9767 57.6594L27.4709 57.5378L27.5365 57.2693L28.9811 57.6153L28.9167 57.8837L28.3799 57.7549L27.416 61.7787Z" fill="#00578E"/>
<path d="M31.6868 57.7671L29.6367 57.6934L29.6259 57.9693L30.1257 57.9868L29.9904 61.772H29.9894L29.4893 61.7544L29.4797 62.0313L31.5229 62.1046L31.5183 62.1035H31.5239C31.8032 62.1279 32.0846 62.0946 32.3504 62.0056C32.6163 61.9165 32.861 61.7736 33.0692 61.5859C33.2943 61.3871 33.4767 61.1448 33.6053 60.8734C33.7339 60.6021 33.8061 60.3075 33.8175 60.0075C33.8283 59.7195 33.7814 59.4324 33.6796 59.1629C33.5777 58.8933 33.423 58.6469 33.2244 58.4382C33.0258 58.2294 32.7875 58.0624 32.5235 57.9472C32.2594 57.8319 31.9749 57.7707 31.6868 57.7671ZM32.8908 59.975C32.909 60.1907 32.884 60.4079 32.8172 60.6139C32.7505 60.8198 32.6433 61.0104 32.502 61.1744C32.3607 61.3385 32.1881 61.4726 31.9943 61.5691C31.8005 61.6656 31.5894 61.7225 31.3733 61.7364L30.8407 61.7173L30.9701 58.1095L31.528 58.1296C31.9475 58.2058 32.322 58.4392 32.5753 58.7821C32.8285 59.1251 32.9414 59.5517 32.8908 59.975Z" fill="#00578E"/>
<path d="M53.9823 35.7037L52.3681 36.2013L52.7322 36.3499L52.1661 36.7087C52.2287 36.3798 52.2832 36.0479 52.3295 35.7131L53.2159 34.9721L53.236 35.3645L54.2337 34.0012L52.6982 34.7061L53.0784 34.8051L52.3708 35.3955C52.4202 34.9886 52.457 34.578 52.4811 34.1636L53.354 33.1973L53.4273 33.5836L54.2332 32.0993L52.8046 33.0016L53.1963 33.0493L52.4987 33.7966C52.5084 33.5392 52.5151 33.2814 52.5151 33.0222C52.5164 31.1257 52.2415 29.239 51.6989 27.4217C50.9574 27.4398 50.2175 27.3442 49.5049 27.1382C49.9385 27.3488 50.3171 27.6576 50.6104 28.0401C50.9038 28.4226 51.1039 28.8683 51.1949 29.3417C50.7147 29.428 50.2221 29.4183 49.7457 29.3132C49.2692 29.2081 48.8183 29.0097 48.419 28.7294C48.7503 29.032 49.0172 29.3985 49.2035 29.8068C49.3898 30.215 49.4918 30.6567 49.5034 31.1054C49.0496 31.1136 48.5991 31.0267 48.181 30.8503C47.7628 30.6738 47.3863 30.4117 47.0756 30.0809C47.626 30.762 47.9101 31.62 47.8749 32.495C47.0237 32.369 46.2456 31.9428 45.6811 31.2934C46.0742 32.0555 46.2673 32.9049 46.2424 33.762C45.4637 33.6531 44.7418 33.2931 44.1864 32.7366C44.5005 33.4803 44.6319 34.2885 44.5694 35.0934C43.7322 34.8696 43.0166 34.3254 42.5772 33.5784C42.876 34.301 42.965 35.0932 42.834 35.8641C42.4692 35.7571 42.1324 35.5713 41.8474 35.3198C41.5623 35.0683 41.3359 34.7573 41.1843 34.4087C41.4988 35.1226 41.5722 35.9196 41.3933 36.679C41.0329 36.5962 40.7029 36.414 40.4409 36.153C40.4312 36.3015 40.4214 36.4465 40.4118 36.5851C40.3794 37.1153 40.2694 37.6378 40.0852 38.136C40.1468 38.2066 40.295 38.3818 40.3012 38.3891C40.6783 38.8134 41.1476 39.1456 41.6732 39.3601C41.487 39.3868 41.2328 39.5462 40.9771 39.5748C41.2612 39.8969 41.8392 39.9685 42.1986 40.3337C41.9187 40.3657 41.8527 40.5689 41.5168 40.5307C41.9685 40.8721 42.5149 41.0654 43.0808 41.084C43.3597 41.1192 43.6416 41.1238 43.9215 41.098C44.2241 41.0705 44.528 41.1345 44.7938 41.2815L48.3227 34.1332L47.9355 34.2012L49.0421 32.9237L48.6986 34.5793L48.5167 34.2296L44.9686 41.4128C45.0297 41.494 45.0651 41.5917 45.0702 41.6932L45.0967 41.6912L45.231 41.5844L45.23 41.5835L50.9442 37.0697L50.565 36.9655L52.1105 36.2833L51.0937 37.6332L51.0782 37.2396L45.4084 41.7132C45.5321 41.7248 45.6484 41.7772 45.739 41.8622C45.8351 42.0172 45.8096 42.0951 45.7199 42.3613C45.6335 42.6175 45.5698 42.7083 45.4002 42.7284C45.3208 42.7409 45.2396 42.7324 45.1646 42.7037C45.2167 42.7325 45.2565 42.7794 45.2764 42.8356C45.3027 42.9042 45.344 43.0239 45.1351 43.2626C44.9497 43.4724 44.7743 43.5508 44.6293 43.4654C44.5712 43.428 44.5208 43.3799 44.4808 43.3235C44.504 43.3827 44.5221 43.4438 44.5349 43.5061C44.57 43.7185 44.4081 43.7958 44.2059 43.8681C43.8229 44.0036 43.6347 43.9449 43.5444 43.8093C43.4655 43.7014 43.4267 43.5693 43.4347 43.4358C43.4427 43.3023 43.497 43.1758 43.5883 43.0781C43.5583 43.2013 43.5554 43.3296 43.58 43.454C43.5981 43.5659 43.6501 43.7523 43.859 43.733C44.0144 43.7173 44.165 43.6705 44.3018 43.5953C44.3906 43.538 44.3939 43.388 44.3488 43.2613C44.3293 43.1775 44.2866 43.1008 44.2256 43.0401C44.3391 43.0773 44.4424 43.1405 44.5272 43.2246C44.5719 43.2677 44.6309 43.2927 44.6929 43.2947C44.755 43.2967 44.8155 43.2756 44.8629 43.2355C44.9483 43.1537 45.0207 43.0592 45.0776 42.9555C45.1738 42.7527 44.9137 42.5946 44.7626 42.5095C45.0283 42.5214 45.0709 42.6235 45.2875 42.593C45.504 42.5624 45.5661 42.2186 45.5683 42.1039C45.5703 42.0203 45.47 41.9368 45.346 41.9049C45.2527 41.8847 45.1572 41.8773 45.0619 41.8827C45.058 41.9073 45.0529 41.9317 45.0464 41.9558C45.0314 42.0236 45.001 42.0871 44.9576 42.1413C44.9141 42.1955 44.8588 42.239 44.7958 42.2684C44.6924 42.2966 44.6282 42.3042 44.7311 42.2291C44.8006 42.1336 44.8348 42.0169 44.8279 41.899C44.8209 41.7811 44.7733 41.6692 44.693 41.5825C44.5079 41.4444 44.2811 41.3738 44.0502 41.3825C43.734 41.406 43.4168 41.4122 43.0999 41.4011C42.9025 41.3798 42.7797 41.6407 42.7504 41.7495C42.6796 42.0079 42.5997 42.3302 42.2255 42.1698C41.7667 41.9064 41.1092 41.9275 40.3561 41.6249C40.4642 41.8558 40.4172 42.0559 40.5322 42.3137C39.8625 42.1487 39.6922 41.8084 39.054 41.5841C39.1591 41.8181 39.1311 41.9982 39.2752 42.2189C38.7358 42.1234 38.2338 41.6403 37.4844 41.4407L37.4163 41.4619C37.1435 41.5448 36.8956 41.6218 36.6682 41.6918C37.2403 42.3246 37.6434 43.0915 37.8402 43.9214C37.5236 43.9121 37.2107 43.8506 36.9141 43.7394C37.0808 44.2454 37.1702 44.7737 37.1792 45.3064C36.8258 45.2192 36.4897 45.073 36.1851 44.8738C36.239 45.4222 36.213 45.9756 36.1079 46.5166C35.7093 46.3235 35.35 46.0578 35.0485 45.7333C34.9828 46.3009 34.8354 46.8559 34.6108 47.3813C34.2538 47.1038 33.9502 46.7638 33.7147 46.3779C33.5208 46.9457 33.2477 47.4833 32.9035 47.9748C32.5301 47.5259 32.2541 47.0045 32.093 46.4434C31.866 46.8033 31.5776 47.1208 31.2411 47.3813C31.0177 46.8553 30.8702 46.3003 30.8028 45.7328C30.502 46.0577 30.1431 46.3235 29.7447 46.5166C29.6389 45.9754 29.6125 45.4216 29.6664 44.8727C29.3613 45.0726 29.0244 45.2192 28.6703 45.3064C28.6803 44.7737 28.7702 44.2455 28.9368 43.7394C28.6404 43.8506 28.3277 43.9121 28.0113 43.9214C28.2295 43.0826 28.6419 42.3069 29.2152 41.6569H29.216C29.0209 41.5965 28.8089 41.531 28.5826 41.4619L28.5147 41.4407C27.7657 41.6403 27.2633 42.1234 26.7252 42.2189C26.8691 41.9982 26.8394 41.8181 26.9449 41.5841C26.3074 41.8084 26.1364 42.1487 25.4679 42.3137C25.5816 42.0559 25.5352 41.8558 25.6444 41.6249C25.0507 41.8891 24.4303 42.0885 23.7939 42.2198C23.3789 42.3059 23.3525 41.6872 23.2164 41.5501C23.0471 41.4832 22.8633 41.4615 22.683 41.4872C22.3804 41.5123 22.0763 41.516 21.7732 41.4984C21.5344 41.4866 21.2991 41.5583 21.1075 41.7012C20.8894 41.8622 20.9922 42.2958 21.0871 42.3654C21.1905 42.4412 21.1266 42.4329 21.0229 42.404C20.9599 42.3748 20.9044 42.3315 20.8609 42.2774C20.8173 42.2233 20.7868 42.1599 20.7718 42.092C20.7682 42.0792 20.7653 42.0642 20.7622 42.0498C20.6498 42.0364 20.536 42.0397 20.4245 42.0596C20.2988 42.0891 20.1958 42.1684 20.1953 42.2525C20.1943 42.3669 20.2495 42.7113 20.464 42.7485C20.6785 42.7858 20.7247 42.6851 20.9889 42.6815C20.8355 42.7619 20.5714 42.9129 20.6616 43.1176C20.7152 43.2231 20.7854 43.3194 20.8694 43.4027C20.9154 43.4443 20.9752 43.4672 21.0372 43.4672C21.0991 43.4672 21.1589 43.4443 21.205 43.4027C21.2919 43.3206 21.3972 43.2603 21.512 43.2269C21.449 43.2859 21.4036 43.3613 21.3808 43.4445C21.3331 43.5704 21.3315 43.72 21.4188 43.7792C21.5532 43.859 21.7027 43.91 21.8577 43.9292C22.0665 43.955 22.1233 43.7704 22.144 43.6585C22.173 43.5352 22.1739 43.4069 22.1467 43.2832C22.2356 43.3831 22.2867 43.511 22.2911 43.6447C22.2955 43.7784 22.2528 43.9094 22.1705 44.0149C22.0751 44.1479 21.8864 44.202 21.5082 44.0545C21.3084 43.9772 21.1485 43.8952 21.1898 43.6838C21.2034 43.6216 21.2234 43.561 21.2494 43.5028C21.2073 43.558 21.1555 43.605 21.0965 43.6416C20.9497 43.7214 20.7744 43.6385 20.5962 43.4239C20.3934 43.178 20.4384 43.061 20.467 42.9924C20.4884 42.9367 20.5295 42.8908 20.5825 42.8634C20.5068 42.8901 20.4255 42.8965 20.3466 42.882C20.1777 42.8567 20.1158 42.765 20.0374 42.5061C19.9554 42.2375 19.9317 42.1575 20.0323 42.0065C20.242 41.8674 20.4976 41.8156 20.7449 41.862C20.7414 41.7829 20.7585 41.7041 20.7947 41.6336C20.8309 41.5631 20.8848 41.5032 20.9512 41.4599C21.2349 41.2874 21.5658 41.2087 21.8969 41.235C22.1765 41.2615 22.4581 41.2568 22.7367 41.2212C23.3627 41.1245 23.9592 40.8891 24.4826 40.5323C24.1464 40.5704 24.0795 40.3673 23.8 40.3353C24.1599 39.9698 24.7379 39.8986 25.0223 39.5763C24.7668 39.5475 24.5423 39.3428 24.3571 39.3159C24.8536 39.0862 25.3071 38.7732 25.698 38.3904C25.7037 38.3831 25.8506 38.215 25.9127 38.145C25.7264 37.6445 25.6152 37.1192 25.5828 36.5862C25.5737 36.4522 25.5644 36.3124 25.5548 36.1686C25.2974 36.3908 24.994 36.5531 24.6664 36.644C24.4811 35.8896 24.538 35.096 24.8289 34.3757C24.6888 34.7281 24.4732 35.0454 24.1972 35.3054C23.9211 35.5653 23.5915 35.7616 23.2314 35.8804C23.0757 35.1106 23.1419 34.3123 23.4223 33.5786C23.0093 34.341 22.3129 34.9103 21.4836 35.1636C21.4015 34.3399 21.514 33.5085 21.812 32.7363C21.2574 33.293 20.5359 33.6531 19.7575 33.7616C19.7322 32.9044 19.9254 32.0549 20.3191 31.293C19.7026 31.9202 18.8863 32.3123 18.0114 32.4015C18.1672 31.6113 18.4529 30.8525 18.857 30.1558C18.1777 30.6924 17.3582 31.022 16.4965 31.105C16.6187 30.2244 16.9954 29.3986 17.5803 28.729C16.8018 29.2793 15.8524 29.5335 14.9031 29.446C15.098 28.5503 15.627 27.7627 16.3824 27.2435C15.7014 27.4059 15 27.4659 14.3013 27.4214C13.7673 29.2098 13.4924 31.0655 13.4851 32.9319C13.0425 32.5846 12.7354 32.4972 12.4306 32.1961C12.4881 32.6106 12.542 32.8362 12.5884 33.3497C12.5862 33.709 12.6783 34.0626 12.8555 34.3752C13.0326 34.6878 13.2887 34.9484 13.598 35.1311C13.6263 35.3942 13.6596 35.6555 13.698 35.9149C13.1665 35.5983 12.553 35.4465 11.9352 35.4786C12.3977 36.9807 13.0566 37.0916 13.942 37.2349C13.9718 37.3726 14.0038 37.5093 14.0368 37.6453C13.4819 37.5146 12.9024 37.5329 12.3569 37.6985C12.5789 38.0509 12.879 38.3475 13.2339 38.5653C13.5889 38.7832 13.9892 38.9166 14.4039 38.955L14.4091 38.971C13.7976 38.9104 13.181 39.016 12.6245 39.2768C12.9107 39.5577 13.2528 39.7755 13.6285 39.916C14.0042 40.0565 14.4052 40.1167 14.8056 40.0925C14.8413 40.1843 14.8781 40.2755 14.9152 40.3669C14.4267 40.4917 13.9755 40.7322 13.5996 41.0681C14.1522 41.2584 14.7375 41.335 15.3204 41.2935L15.3393 41.3337C14.9535 41.6535 14.6849 42.0924 14.5758 42.5815C14.9903 42.4752 15.4167 42.4479 15.841 42.3262C15.9265 42.483 16.0139 42.6387 16.1035 42.7934C15.8633 43.2749 15.803 43.8264 15.9333 44.3485C16.2556 44.2775 16.5601 44.1413 16.828 43.9484C16.9117 44.0721 16.9965 44.1948 17.0827 44.3166C17.0291 44.6366 17.0437 44.9643 17.1254 45.2783C17.2072 45.5923 17.3543 45.8855 17.5571 46.1388C17.7053 45.971 17.8411 45.7926 17.9634 45.6051C18.8431 44.2613 18.311 43.2941 18.3305 42.4226L18.3512 42.368C18.4233 43.4059 19.3246 44.4289 18.2676 45.6825C18.2468 45.7072 18.2282 45.7283 18.2091 45.75C20.4245 48.3246 23.2735 50.2764 26.4743 51.4127C29.6752 52.5489 33.1172 52.8301 36.46 52.2285C39.8029 51.627 42.9309 50.1634 45.5349 47.9826C48.1388 45.8018 50.1286 42.9792 51.3075 39.7938L52.1941 39.4097L52.1274 39.7964L53.4039 38.6914L51.7484 39.0333L52.0983 39.2153L51.4143 39.4943C51.5352 39.1508 51.6466 38.8031 51.7483 38.4511L52.7203 37.9154L52.6877 38.3073L53.8603 37.0894L52.2434 37.5813L52.6069 37.7308L51.8302 38.1583C51.9336 37.7772 52.0261 37.3921 52.1077 37.0028L52.846 36.534L52.8147 36.9259L53.9817 35.7039L53.9823 35.7037Z" fill="#00578E"/>
<path d="M45.064 41.8826C45.1592 41.8772 45.2548 41.8846 45.3481 41.9048C45.4721 41.9366 45.5724 42.0203 45.5704 42.1038C45.5682 42.2182 45.5056 42.5616 45.2895 42.5929C45.0735 42.6241 45.0307 42.5213 44.7646 42.5094C44.9158 42.5946 45.1759 42.7523 45.0797 42.9554C45.0228 43.0592 44.9504 43.1536 44.865 43.2354C44.8176 43.2755 44.7571 43.2966 44.695 43.2946C44.633 43.2926 44.5739 43.2676 44.5293 43.2246C44.4445 43.1404 44.3412 43.0772 44.2277 43.04C44.2886 43.1008 44.3313 43.1774 44.3509 43.2612C44.396 43.388 44.3927 43.5381 44.3039 43.5952C44.1671 43.6704 44.0165 43.7173 43.8611 43.7329C43.6522 43.752 43.6002 43.5659 43.5821 43.454C43.5575 43.3295 43.5603 43.2013 43.5904 43.0781C43.4991 43.1758 43.4448 43.3023 43.4368 43.4357C43.4287 43.5692 43.4676 43.7013 43.5465 43.8092C43.6368 43.9449 43.8249 44.0036 44.208 43.868C44.4108 43.7957 44.5721 43.7184 44.537 43.506C44.5242 43.4437 44.5061 43.3826 44.4829 43.3235C44.5229 43.3798 44.5733 43.4279 44.6314 43.4653C44.7763 43.5504 44.9518 43.472 45.1372 43.2625C45.3461 43.0239 45.3048 42.9046 45.2784 42.8355C45.2586 42.7793 45.2188 42.7324 45.1667 42.7036C45.2417 42.7323 45.3229 42.7408 45.4023 42.7283C45.5719 42.7082 45.6356 42.6175 45.722 42.3612C45.8117 42.0951 45.8372 42.0167 45.7411 41.8621C45.6505 41.7771 45.5342 41.7247 45.4105 41.7131L51.0803 37.2395L51.0958 37.6332L52.1126 36.2832L50.5671 36.9655L50.9463 37.0696L45.232 41.5834L45.2331 41.5844L45.0988 41.6911L45.0723 41.6932" fill="white"/>
<path d="M44.9722 41.4124L48.52 34.2296L48.7014 34.5792L49.0449 32.9233L47.9391 34.201L48.3256 34.133L44.7968 41.2824" fill="white"/>
<path d="M44.0784 42.2062C44.1728 42.4141 44.1921 42.6483 44.133 42.8688C44.2681 42.8369 44.388 42.7594 44.4724 42.6492C44.5569 42.5391 44.6007 42.4032 44.5965 42.2645C44.528 42.2001 44.4405 42.1597 44.3471 42.1492C44.2537 42.1387 44.1594 42.1587 44.0784 42.2062Z" fill="white"/>
<path d="M44.0096 42.2431C43.9354 42.2465 43.8621 42.2258 43.8007 42.184C43.7392 42.1423 43.6929 42.0818 43.6687 42.0116C43.6278 41.9053 43.5097 41.8394 43.5082 42.0008C43.5066 42.1622 43.5048 42.2333 43.5961 42.2777C43.6628 42.3052 43.7351 42.3165 43.807 42.3104C43.8789 42.3044 43.9484 42.2813 44.0096 42.2431Z" fill="white"/>
<path d="M44.0354 42.9271C43.966 42.8262 43.9193 42.7115 43.8986 42.5908C43.8254 42.7721 43.775 42.9618 43.7485 43.1554C43.7419 43.2014 43.7459 43.2184 43.8663 43.2251C43.9973 43.2282 44.1256 43.1878 44.2311 43.1101C44.1573 43.059 44.0914 42.9973 44.0354 42.9271Z" fill="white"/>
<path d="M48.3617 35.407L48.7544 35.3868L46.5374 38.751C46.2776 39.277 46.0254 39.7879 45.8034 40.2375L45.8382 40.1989L48.935 35.5061L49.0731 35.8754L49.6157 34.2744L48.3617 35.4077V35.407Z" fill="white"/>
<path d="M47.5194 38.3526L51.5454 33.2549L51.6528 33.6343L52.3287 32.085L50.9835 33.1068L51.3759 33.1206L47.7303 37.7421L46.8555 39.0677L46.863 39.0739C47.0762 38.8399 47.2967 38.598 47.5192 38.353L47.5194 38.3526Z" fill="white"/>
<path d="M47.0378 39.8675C47.376 39.6004 47.7287 39.3225 48.074 39.0492L51.4273 35.944L51.4742 36.3355L52.3798 34.9082L50.8937 35.712L51.2798 35.7859L47.9157 38.9049C47.6127 39.2369 47.3168 39.5617 47.0375 39.8675H47.0378Z" fill="white"/>
<path d="M50.7636 39.1375L46.0417 41.5027C45.9582 41.5687 45.8919 41.6208 45.8508 41.6537C45.8828 41.6785 45.9103 41.7085 45.9322 41.7425L45.956 41.7858L50.8601 39.3309L50.7947 39.7192L52.0661 38.6055L50.4131 38.9581L50.7632 39.137L50.7636 39.1375Z" fill="white"/>
<path d="M43.628 44.1391C43.5592 44.117 43.496 44.0804 43.4426 44.0317L42.5973 45.7854L42.6013 45.7875L42.2922 45.8917L41.2917 47.8083L41.7761 47.6607L41.9522 48.1356L42.8994 46.1928L42.788 45.8793L43.628 44.1401V44.1391Z" fill="white"/>
<path d="M46.92 40.8105C47.2439 40.648 47.6179 40.4604 47.9982 40.2701L51.1378 38.2191L51.1172 38.6127L52.2529 37.3608L50.6516 37.9002L51.0197 38.0383L47.6032 40.2709C47.3619 40.4612 47.1314 40.6427 46.92 40.8103V40.8105Z" fill="white"/>
<path d="M43.2439 43.6711C43.2199 43.5777 43.2115 43.4809 43.219 43.3848L42.0976 44.6078L41.7675 44.6351L41.7397 44.6635L40.179 46.224L40.2521 46.2204L40.2465 46.2265L40.2656 46.2198L40.6504 46.2013L40.7183 46.5831L42.0115 44.8836L42.2608 44.8305L43.2439 43.6711Z" fill="white"/>
<path d="M45.3124 41.2329C45.4506 41.1241 45.6465 40.9683 45.8851 40.7811L51.3965 34.755L51.4744 35.1413L52.2633 33.6465L50.8462 34.5663L51.237 34.6086L45.4674 40.9209C45.4117 41.0333 45.3608 41.1374 45.3133 41.2329H45.3124Z" fill="white"/>
<path d="M40.3798 45.3527L42.433 43.9063C42.6683 43.6496 42.9256 43.3695 43.0169 43.269L40.4506 44.963L40.4535 44.9671L40.1335 44.9007L39.9461 45.0177L38.2984 46.0446L38.7609 46.14L38.8166 46.4875L40.1453 45.3407L40.3798 45.3527Z" fill="white"/>
<path d="M38.6779 45.5426L39.5011 45.0297L40.2686 44.5069L40.5292 44.5569C40.5292 44.5569 42.3994 43.4044 42.8568 43.1054L42.8934 43.0816L42.9078 43.0723L40.4524 44.2968L40.1422 44.2L38.1885 45.1265L38.6283 45.2874L38.6789 45.5426H38.6779Z" fill="white"/>
<path d="M20.7461 41.8614C20.4988 41.8149 20.2432 41.8667 20.0335 42.0058C19.9329 42.1569 19.9566 42.2368 20.0386 42.5054C20.117 42.7643 20.1789 42.856 20.3478 42.8813C20.4267 42.8958 20.508 42.8894 20.5837 42.8627C20.5307 42.8901 20.4896 42.936 20.4682 42.9917C20.4396 43.0603 20.3949 43.1773 20.5974 43.4232C20.7763 43.6379 20.9509 43.7207 21.0977 43.6409C21.1567 43.6043 21.2085 43.5573 21.2506 43.5022C21.2246 43.5603 21.2046 43.6209 21.191 43.6831C21.1497 43.8945 21.3096 43.9765 21.5094 44.0538C21.8876 44.2013 22.0768 44.1472 22.1717 44.0142C22.254 43.9087 22.2967 43.7777 22.2923 43.644C22.2879 43.5103 22.2368 43.3824 22.1479 43.2825C22.1751 43.4062 22.1742 43.5345 22.1452 43.6578C22.1247 43.7697 22.0679 43.9543 21.8589 43.9285C21.7039 43.9094 21.5544 43.8583 21.42 43.7786C21.3327 43.7189 21.3343 43.5697 21.382 43.4438C21.4048 43.3606 21.4502 43.2853 21.5132 43.2262C21.3983 43.2596 21.2931 43.3199 21.2061 43.4021C21.1601 43.4436 21.1003 43.4665 21.0384 43.4665C20.9764 43.4665 20.9166 43.4436 20.8706 43.4021C20.7866 43.3187 20.7164 43.2224 20.6628 43.1169C20.5724 42.9122 20.8367 42.7612 20.9901 42.6808C20.7254 42.6844 20.6784 42.7849 20.4652 42.7478C20.252 42.7107 20.1955 42.3661 20.1965 42.2518C20.1965 42.1683 20.3 42.0884 20.4257 42.0589C20.5372 42.039 20.651 42.0358 20.7634 42.0491" fill="white"/>
<path d="M15.8859 39.6428C15.9361 39.6479 15.9246 39.6443 15.8675 39.6257C15.3267 39.2869 14.6766 39.168 14.0508 39.2933C14.6757 39.3247 15.2932 39.4423 15.8859 39.6428Z" fill="white"/>
<path d="M16.2535 43.7902C16.3849 43.1257 16.7423 42.5271 17.2649 42.0962C17.6501 41.7776 17.8677 41.6605 17.5472 41.9973C17.0484 42.5431 16.6143 43.1448 16.2535 43.7902Z" fill="white"/>
<path d="M17.4575 45.3314C17.3058 44.6792 17.377 43.995 17.6596 43.388C17.8179 43.0055 18.0477 42.6567 18.3366 42.3604C17.8548 43.2848 17.5563 44.2936 17.4575 45.3314Z" fill="white"/>
<path d="M15.6891 37.9126C15.6744 37.8406 15.6387 37.7746 15.5865 37.7229C15.5343 37.6712 15.4679 37.6361 15.3958 37.6221C15.3237 37.608 15.249 37.6157 15.1812 37.6441C15.1134 37.6725 15.0556 37.7203 15.015 37.7816C14.9744 37.8428 14.9529 37.9147 14.9531 37.9882C14.9534 38.0617 14.9754 38.1334 15.0164 38.1944C15.0574 38.2554 15.1156 38.3028 15.1835 38.3308C15.2515 38.3587 15.3262 38.3659 15.3982 38.3514C15.4461 38.3417 15.4917 38.3226 15.5322 38.2953C15.5728 38.268 15.6076 38.233 15.6346 38.1923C15.6616 38.1515 15.6803 38.1058 15.6896 38.0579C15.699 38.0099 15.6988 37.9605 15.6891 37.9126Z" fill="white"/>
<path d="M18.9217 38.4238C18.9346 37.867 18.8501 37.2936 18.9152 36.645C18.409 36.9886 18.0326 37.492 17.8462 38.0747C17.6599 38.6575 17.6744 39.2859 17.8874 39.8594C17.8407 39.8506 17.7927 39.8506 17.746 39.8594C17.6582 39.8768 17.5791 39.9241 17.5223 39.9934C17.4654 40.0626 17.4344 40.1494 17.4346 40.2389C17.4347 40.3285 17.4659 40.4152 17.5229 40.4843C17.5799 40.5534 17.6592 40.6005 17.7471 40.6176C17.835 40.6347 17.9261 40.6207 18.0048 40.5781C18.0836 40.5354 18.1451 40.4667 18.1787 40.3838C18.2124 40.3008 18.2163 40.2087 18.1896 40.1232C18.1628 40.0377 18.1073 39.9642 18.0323 39.9152C17.926 39.5029 17.9091 39.0727 17.9828 38.6533C18.0564 38.234 18.2189 37.8353 18.4593 37.4839C18.2016 38.3783 18.1218 39.3146 18.2246 40.2396C18.3879 40.0562 18.5276 39.8532 18.6407 39.6353C18.6628 39.8137 18.7068 39.9886 18.772 40.1561C18.7617 39.7105 18.8646 39.2696 19.0712 38.8746C19.2777 38.4796 19.5811 38.1434 19.953 37.8976C19.3772 38.612 19.0024 39.4671 18.8674 40.3747C19.3341 39.7823 20.3932 39.6069 20.468 37.2912C19.8386 37.4812 19.293 37.8805 18.9216 38.423L18.9217 38.4238Z" fill="white"/>
<path d="M19.6538 40.8054C19.6383 40.7273 19.5999 40.6555 19.5435 40.5992C19.4872 40.5429 19.4154 40.5046 19.3372 40.4891C19.2591 40.4736 19.1781 40.4817 19.1045 40.5122C19.031 40.5428 18.9681 40.5945 18.9239 40.6608C18.8797 40.727 18.8562 40.8049 18.8563 40.8846C18.8564 40.9643 18.8802 41.0421 18.9245 41.1083C18.9689 41.1744 19.0319 41.226 19.1055 41.2563C19.1792 41.2867 19.2602 41.2945 19.3383 41.2788C19.4427 41.2575 19.5345 41.1958 19.5936 41.1071C19.6527 41.0184 19.6743 40.91 19.6538 40.8054Z" fill="white"/>
<path d="M19.5141 42.0246C19.4985 41.9466 19.46 41.8751 19.4037 41.8189C19.3474 41.7628 19.2757 41.7246 19.1977 41.7093C19.1197 41.6939 19.0389 41.702 18.9655 41.7325C18.892 41.7631 18.8293 41.8147 18.7853 41.8809C18.7412 41.9471 18.7178 42.0249 18.7179 42.1044C18.718 42.1839 18.7417 42.2616 18.786 42.3276C18.8303 42.3937 18.8932 42.4451 18.9667 42.4754C19.0402 42.5057 19.1211 42.5135 19.199 42.4979C19.3033 42.4765 19.395 42.4147 19.454 42.3261C19.513 42.2375 19.5346 42.1291 19.5141 42.0246Z" fill="white"/>
<path d="M17.181 36.0797C16.8384 36.3483 16.5704 36.7003 16.4027 37.102C16.2349 37.5038 16.173 37.9418 16.2228 38.3742C16.191 38.3705 16.1588 38.3716 16.1273 38.3774C16.0869 38.3852 16.0484 38.401 16.014 38.4238C15.9797 38.4466 15.9502 38.4759 15.9273 38.5102C15.9043 38.5444 15.8884 38.5828 15.8804 38.6232C15.8723 38.6637 15.8724 38.7053 15.8805 38.7457C15.8887 38.7861 15.9047 38.8245 15.9277 38.8587C15.9508 38.8928 15.9803 38.9221 16.0147 38.9448C16.0491 38.9675 16.0877 38.9832 16.1281 38.9909C16.1686 38.9987 16.2102 38.9983 16.2506 38.9899C16.2878 38.9823 16.3233 38.9678 16.3552 38.9471C16.4277 39.1572 16.528 39.3566 16.6534 39.5401C16.5771 39.2714 16.5252 38.9963 16.4984 38.7182C16.5025 38.6864 16.5016 38.6542 16.4955 38.6227L16.489 38.6015C16.4145 37.9781 16.5602 37.3483 16.9009 36.821C16.7242 37.7739 16.684 38.747 16.7816 39.7112C17.0202 38.8181 18.3085 38.4228 17.1807 36.0796L17.181 36.0797Z" fill="white"/>
<path d="M20.4534 41.3507C20.441 41.2899 20.411 41.2342 20.367 41.1906C20.323 41.1469 20.267 41.1173 20.2062 41.1054C20.1453 41.0935 20.0824 41.1 20.0252 41.1239C19.968 41.1478 19.9192 41.1881 19.8849 41.2398C19.8507 41.2914 19.8325 41.3521 19.8326 41.414C19.8328 41.476 19.8514 41.5366 19.8859 41.588C19.9205 41.6394 19.9696 41.6795 20.0269 41.7031C20.0842 41.7266 20.1472 41.7327 20.208 41.7205C20.2895 41.7039 20.3611 41.6556 20.4071 41.5863C20.4531 41.517 20.4698 41.4322 20.4534 41.3507Z" fill="white"/>
<path d="M18.7227 41.2914C18.7112 41.2357 18.6836 41.1846 18.6431 41.1446C18.6027 41.1046 18.5513 41.0775 18.4954 41.0668C18.4396 41.056 18.3818 41.062 18.3293 41.084C18.2769 41.106 18.2322 41.1431 18.2008 41.1906C18.1694 41.238 18.1528 41.2937 18.1531 41.3505C18.1533 41.4074 18.1704 41.4629 18.2022 41.5101C18.234 41.5573 18.2791 41.594 18.3317 41.6155C18.3843 41.6371 18.4422 41.6426 18.4979 41.6313C18.5352 41.6241 18.5706 41.6095 18.6022 41.5884C18.6337 41.5673 18.6607 41.5402 18.6817 41.5085C18.7026 41.4769 18.717 41.4414 18.724 41.4041C18.7311 41.3668 18.7306 41.3285 18.7227 41.2914Z" fill="white"/>
<path d="M14.7772 37.321C14.7667 37.2592 14.7348 37.2031 14.6871 37.1625C14.6394 37.1219 14.579 37.0993 14.5163 37.0987C14.2991 36.7628 14.0113 36.4783 13.6729 36.2651C13.3345 36.0518 12.9537 35.9148 12.557 35.8638C13.2377 36.1955 13.8726 36.6139 14.4459 37.1085C14.3959 37.1218 14.3507 37.1494 14.3161 37.1878C14.2814 37.2263 14.2586 37.2741 14.2506 37.3253C14.2426 37.3764 14.2497 37.4289 14.2709 37.4761C14.2922 37.5233 14.3267 37.5634 14.3703 37.5913C14.414 37.6193 14.4648 37.634 14.5166 37.6335C14.5684 37.6331 14.6189 37.6176 14.6621 37.589C14.7053 37.5603 14.7391 37.5197 14.7596 37.4721C14.7801 37.4245 14.7863 37.372 14.7775 37.321H14.7772Z" fill="white"/>
<path d="M14.7905 35.4797C14.7818 35.4362 14.7645 35.3947 14.7397 35.3579C14.715 35.321 14.6832 35.2893 14.6461 35.2647C14.6091 35.2402 14.5676 35.2232 14.524 35.2147C14.4803 35.2062 14.4355 35.2064 14.3919 35.2153L14.3688 35.2225C14.3015 34.7766 14.141 34.3499 13.8978 33.9701C13.6545 33.5904 13.334 33.2661 12.957 33.0186C13.4873 33.7097 13.9473 34.452 14.3304 35.2344C14.2712 35.2588 14.2201 35.2996 14.1832 35.3519C14.1463 35.4043 14.125 35.466 14.1219 35.53C14.1187 35.594 14.1338 35.6576 14.1654 35.7133C14.197 35.769 14.2438 35.8146 14.3003 35.8447C14.3569 35.8749 14.4208 35.8883 14.4847 35.8835C14.5485 35.8787 14.6097 35.8559 14.6611 35.8176C14.7125 35.7793 14.7519 35.7273 14.7748 35.6675C14.7977 35.6076 14.8032 35.5425 14.7905 35.4797Z" fill="white"/>
<path d="M15.7792 38.8643C15.7734 38.8298 15.7608 38.7968 15.7421 38.7672C15.7235 38.7376 15.6992 38.7119 15.6706 38.6918C15.642 38.6716 15.6097 38.6573 15.5756 38.6496C15.5414 38.642 15.5061 38.6412 15.4716 38.6473C15.404 38.6593 15.3435 38.6965 15.3025 38.7515C15.0523 38.498 14.7536 38.2975 14.4242 38.1619C14.0948 38.0264 13.7415 37.9586 13.3854 37.9626C14.0502 38.1539 14.6871 38.4318 15.2796 38.789C15.2528 38.8399 15.2433 38.898 15.2525 38.9546C15.2579 38.9897 15.2703 39.0233 15.2888 39.0535C15.3073 39.0837 15.3317 39.1099 15.3605 39.1306C15.3893 39.1513 15.4219 39.1661 15.4564 39.1741C15.491 39.182 15.5268 39.1831 15.5617 39.1771C15.5966 39.1711 15.63 39.1582 15.66 39.1392C15.6899 39.1201 15.7157 39.0954 15.7359 39.0662C15.7562 39.0371 15.7704 39.0043 15.7778 38.9696C15.7853 38.935 15.7857 38.8992 15.7792 38.8643Z" fill="white"/>
<path d="M16.5041 39.9452C16.489 39.8706 16.4522 39.8021 16.3982 39.7483C16.3443 39.6946 16.2756 39.6581 16.2009 39.6434C16.1261 39.6288 16.0487 39.6366 15.9785 39.6659C15.9082 39.6952 15.8482 39.7447 15.806 39.8081C15.7639 39.8716 15.7415 39.9461 15.7417 40.0222C15.7419 40.0984 15.7647 40.1727 15.8072 40.2359C15.8496 40.2991 15.9099 40.3483 15.9803 40.3773C16.0508 40.4062 16.1282 40.4136 16.2028 40.3986C16.3026 40.3778 16.3902 40.3186 16.4466 40.2338C16.503 40.1489 16.5236 40.0452 16.5041 39.9452Z" fill="white"/>
<path d="M17.0632 40.6074C17.0572 40.5728 17.0445 40.5398 17.0258 40.5101C17.007 40.4805 16.9826 40.4549 16.9539 40.4347C16.9252 40.4145 16.8928 40.4002 16.8585 40.3926C16.8243 40.385 16.7889 40.3842 16.7543 40.3903C16.7111 40.3973 16.6703 40.415 16.6357 40.4417C16.601 40.4685 16.5736 40.5035 16.5558 40.5435C15.7801 40.4299 14.9884 40.5663 14.2953 40.9327C15.0288 40.7398 15.7805 40.6239 16.5381 40.5868L16.5404 40.5862C16.5308 40.6227 16.5288 40.6608 16.5347 40.6981C16.5406 40.7327 16.5533 40.7659 16.5721 40.7957C16.5908 40.8254 16.6152 40.8512 16.6439 40.8715C16.6726 40.8919 16.705 40.9063 16.7393 40.9141C16.7736 40.9219 16.8091 40.9229 16.8438 40.917C16.8785 40.9111 16.9116 40.8984 16.9414 40.8796C16.9712 40.8609 16.9969 40.8365 17.0173 40.8078C17.0376 40.7791 17.0521 40.7466 17.0599 40.7123C17.0677 40.6781 17.0686 40.6426 17.0627 40.6079L17.0632 40.6074Z" fill="white"/>
<path d="M17.8382 41.0591C17.8204 40.9686 17.7673 40.8888 17.6906 40.8373C17.614 40.7859 17.52 40.767 17.4294 40.7849C17.3388 40.8027 17.259 40.8558 17.2076 40.9325C17.1562 41.0092 17.1373 41.1031 17.1551 41.1937L17.1313 41.1917C16.7512 41.1677 16.3704 41.2269 16.0155 41.3651C15.6606 41.5033 15.3401 41.7172 15.0763 41.9919C15.719 41.6219 16.4184 41.3606 17.1463 41.2185C17.1517 41.2185 17.1572 41.2185 17.1623 41.2185C17.1857 41.3058 17.2422 41.3805 17.3197 41.4269C17.3973 41.4732 17.4898 41.4876 17.5778 41.4669C17.6657 41.4461 17.7422 41.392 17.7909 41.3159C17.8396 41.2398 17.8567 41.1477 17.8387 41.0591H17.8382Z" fill="white"/>
<path d="M16.4185 34.2266C16.1202 34.3557 15.8513 34.5441 15.6282 34.7804C15.405 35.0167 15.2323 35.2959 15.1204 35.6011C15.0085 35.9063 14.9599 36.231 14.9775 36.5555C14.9951 36.8801 15.0785 37.1977 15.2227 37.4889C15.8106 36.653 16.9176 36.4716 16.4185 34.2266ZM15.2269 37.4286C15.1727 36.954 15.2163 36.4734 15.355 36.0163C15.4937 35.5593 15.7245 35.1355 16.0333 34.771C15.6931 35.6336 15.4234 36.5224 15.2269 37.4286Z" fill="white"/>
<path d="M15.1429 31.8766C14.562 32.1873 14.1228 32.7094 13.9161 33.3348C14.0124 33.4468 14.098 33.5675 14.1719 33.6952C14.2964 33.1615 14.5551 32.6685 14.9235 32.2627C14.6484 32.8011 14.4406 33.3712 14.3047 33.9603C14.4417 34.2774 14.5077 34.6205 14.4981 34.9657C14.8896 34.5662 15.1584 34.0628 15.2725 33.5152C15.3867 32.9676 15.3415 32.3987 15.1423 31.876L15.1429 31.8766Z" fill="white"/>
<path d="M22.725 42.811C24.1158 43.8279 25.0845 45.3203 25.447 47.0046C25.2152 46.8315 24.9316 46.7417 24.6424 46.7498C24.4238 45.3609 23.6705 44.1126 22.5435 43.272C22.5774 43.1091 22.6388 42.9533 22.725 42.811Z" fill="white"/>
<path d="M21.2306 42.4001C21.2992 42.3358 21.3867 42.2954 21.4801 42.285C21.5734 42.2745 21.6677 42.2944 21.7488 42.3419C21.6544 42.5498 21.6354 42.7841 21.6953 43.0045C21.5598 42.973 21.4395 42.8956 21.3546 42.7855C21.2698 42.6753 21.2258 42.5391 21.23 42.4001H21.2306Z" fill="white"/>
<path d="M21.8193 42.3791C21.8936 42.3823 21.967 42.3616 22.0286 42.3199C22.0901 42.2781 22.1366 42.2177 22.1611 42.1475C22.2006 42.0413 22.3194 41.9748 22.3216 42.1368C22.3237 42.2988 22.3247 42.3698 22.2328 42.4141C22.1661 42.4415 22.0937 42.4526 22.0218 42.4465C21.9499 42.4404 21.8805 42.4173 21.8193 42.3791Z" fill="white"/>
<path d="M21.9331 42.7275C21.9129 42.8483 21.8663 42.9631 21.7965 43.0637C21.7399 43.1328 21.6742 43.1941 21.6013 43.2458C21.7069 43.3233 21.8352 43.3637 21.9661 43.3606C22.0854 43.3546 22.0907 43.3368 22.0832 43.2911C22.0574 43.0976 22.0069 42.9082 21.9331 42.7275Z" fill="white"/>
</svg>
