<svg width="48" height="48" viewBox="0 0 48 48" fill="none" xmlns="http://www.w3.org/2000/svg">
<path fill-rule="evenodd" clip-rule="evenodd" d="M4.97742 6.33666V38.9461C4.97742 41.1972 6.80281 43.0226 9.05394 43.0226H41.6633C42.4132 43.0226 43.0226 42.4132 43.0226 41.6633C43.0226 40.9134 42.4132 40.3054 41.6633 40.304H9.05394C8.30403 40.304 7.69603 39.696 7.69603 38.9447V6.33666C7.69463 5.58675 7.08663 4.97736 6.33672 4.97736C5.58681 4.97736 4.97742 5.58675 4.97742 6.33666ZM29.4338 34.8681V18.5634C29.4338 17.0622 28.2178 15.8462 26.7165 15.8462H23.9993C22.4981 15.8462 21.2821 17.0622 21.2821 18.5634V34.8681C21.2821 36.3694 22.4981 37.5854 23.9993 37.5854H26.7165C28.2178 37.5854 29.4338 36.3694 29.4338 34.8681ZM40.304 10.4118C40.304 9.6911 40.0174 8.99962 39.5082 8.4904C38.999 7.98118 38.3075 7.69457 37.5868 7.69457H34.8696C34.1489 7.69457 33.4574 7.98118 32.9482 8.4904C32.439 8.99962 32.1524 9.6911 32.1524 10.4118V34.8681C32.1524 35.5888 32.439 36.2803 32.9482 36.7895C33.4574 37.2987 34.1489 37.5854 34.8696 37.5854H37.5868C38.3075 37.5854 38.999 37.2987 39.5082 36.7895C40.0174 36.2803 40.304 35.5888 40.304 34.8681V10.4118ZM18.5649 34.8681V26.7165C18.5649 25.2153 17.3489 23.9993 15.8477 23.9993H13.1305C11.6292 23.9993 10.4132 25.2153 10.4132 26.7165V34.8681C10.4132 36.3694 11.6292 37.5854 13.1305 37.5854H15.8477C17.3489 37.5854 18.5649 36.3694 18.5649 34.8681ZM23.9993 18.5648V34.8695H26.7165V18.5648H23.9993ZM13.1291 34.8681H15.8463V26.7165H13.1291V34.8681ZM34.8682 10.4118H37.5854V34.8681H34.8682V10.4118Z" />
</svg>
