<svg width="48" height="48" viewBox="0 0 48 48" fill="none" xmlns="http://www.w3.org/2000/svg">
<path fill-rule="evenodd" clip-rule="evenodd" d="M38.9455 40.3026H9.05474C6.80361 40.3026 4.97961 38.4772 4.97961 36.2261V11.7725C4.97961 10.6915 5.40953 9.65494 6.17335 8.88972C6.93718 8.1259 7.97509 7.69598 9.05474 7.69598H17.8673C19.477 7.69598 21.0506 8.17181 22.389 9.06503L24.0001 10.1391L25.6113 9.06503C26.9511 8.17181 28.5233 7.69598 30.133 7.69598H38.9455C40.0266 7.69598 41.0631 8.1259 41.8269 8.88972C42.5907 9.65355 43.0207 10.6901 43.0207 11.7725V36.2275C43.0207 37.3085 42.5907 38.345 41.8269 39.1102C41.0631 39.8741 40.0266 40.304 38.9455 40.304V40.3026ZM25.3594 37.5854H38.9455C39.3059 37.5854 39.6509 37.4421 39.9055 37.1875C40.1601 36.9329 40.3034 36.5878 40.3034 36.2261V11.7725C40.3034 11.4122 40.1601 11.0671 39.9055 10.8125C39.6509 10.5579 39.3059 10.4146 38.9455 10.4146H30.133C29.0603 10.4146 28.0113 10.7318 27.118 11.3273L25.358 12.5002V37.5868L25.3594 37.5854ZM22.6422 12.4988L20.8822 11.3259C19.989 10.7304 18.94 10.4132 17.8673 10.4132H9.05474C8.6944 10.4132 8.34935 10.5565 8.09335 10.8111C7.83874 11.0657 7.69544 11.4108 7.69544 11.7711V36.2261C7.69544 36.976 8.30344 37.5854 9.05335 37.5854H22.6394V12.4988H22.6422Z" />
</svg>
