<svg width="48" height="48" viewBox="0 0 48 48" fill="none" xmlns="http://www.w3.org/2000/svg">
<path fill-rule="evenodd" clip-rule="evenodd" d="M24.0001 25.9219C26.1218 28.0437 26.1218 31.4858 24.0001 33.6075L16.2951 41.3125C14.1733 43.4343 10.7312 43.4343 8.6095 41.3125L6.68811 39.3912C4.56637 37.2694 4.56637 33.8287 6.68811 31.7056L14.3931 24.0005C16.5149 21.8788 19.957 21.8788 22.0787 24.0005L24.0001 22.0791C21.8784 19.9574 21.8784 16.5167 24.0001 14.3936L31.7051 6.68854C33.8269 4.56541 37.269 4.56541 39.3907 6.68854L41.3121 8.60993C43.4338 10.7331 43.4338 14.1738 41.3121 16.2955L33.6071 24.0005C31.4853 26.1223 28.0432 26.1223 25.9215 24.0005L24.0001 25.9219ZM20.1573 25.9219C19.0958 24.8604 17.3761 24.8604 16.3145 25.9219L8.6095 33.627C7.54793 34.6885 7.54793 36.4082 8.6095 37.4698L10.5309 39.3912C11.5925 40.4527 13.3121 40.4527 14.3737 39.3912L22.0787 31.6861C23.1403 30.6245 23.1403 28.9049 22.0787 27.8433L18.1678 31.7543C17.6377 32.2844 16.7765 32.2844 16.2464 31.7543C15.7163 31.2242 15.7163 30.363 16.2464 29.8329L20.1573 25.9219ZM27.8429 22.0791C28.9045 23.1407 30.6241 23.1407 31.6857 22.0791L39.3907 14.3741C40.4523 13.3125 40.4523 11.5929 39.3907 10.5313L37.4693 8.60993C36.4078 7.54837 34.6881 7.54837 33.6265 8.60993L25.9215 16.315C24.8599 17.3765 24.8599 19.0962 25.9215 20.1578L29.8325 16.2468C30.3625 15.7167 31.2238 15.7167 31.7538 16.2468C32.2839 16.7769 32.2839 17.6381 31.7538 18.1682L27.8429 22.0791Z"/>
</svg>
