<svg width="267" height="80" viewBox="0 0 267 80" fill="none" xmlns="http://www.w3.org/2000/svg">
<g clip-path="url(#clip0_1612_29566)">
<path d="M93.3333 11.2889H100V12.5334H97.8666V20.1778C97.8666 23.8223 99.6444 25.4223 101.867 25.4223C104 25.4223 105.867 24.0889 105.867 20.0001V12.5334H103.822V11.2889H110.044V12.5334H108V20.3556C108 24.4445 105.778 26.6667 101.778 26.6667C98.0444 26.6667 95.3778 24.8889 95.3778 19.9112V12.5334H93.3333V11.2889Z" fill="#005285"/>
<path d="M112.356 25.0668C112.356 25.9557 111.644 26.6668 110.756 26.6668C109.867 26.6668 109.156 25.9557 109.156 25.0668C109.156 24.1779 109.867 23.4668 110.756 23.4668C111.644 23.4668 112.356 24.1779 112.356 25.0668Z" fill="#005285"/>
<path d="M115.556 21.8667H116.8V23.8223C117.778 25.0667 118.844 25.6001 119.822 25.6001C121.244 25.6001 122.311 24.5334 122.311 23.2001C122.311 20.6223 118.756 20.1779 116.711 18.1334C115.733 17.1556 115.378 16.089 115.378 15.1112C115.378 13.1556 117.067 11.2001 119.644 11.2001C120.711 11.2001 121.689 11.3779 122.578 12.0001V11.2001H123.822V15.1112H122.667V13.5112C122.044 12.7112 121.067 12.1779 120 12.1779C118.311 12.1779 117.6 13.1556 117.6 14.4001C117.6 16.8001 121.067 17.1556 123.289 19.289C124.267 20.2667 124.622 21.0667 124.622 22.3112C124.622 24.889 122.844 26.6667 120.089 26.6667C118.933 26.6667 118.044 26.3112 116.889 25.6001V26.6667H115.556V21.8667Z" fill="#005285"/>
<path d="M129.422 25.0668C129.422 25.9557 128.711 26.6668 127.822 26.6668C126.933 26.6668 126.222 25.9557 126.222 25.0668C126.222 24.1779 126.933 23.4668 127.822 23.4668C128.711 23.4668 129.422 24.1779 129.422 25.0668Z" fill="#005285"/>
<path d="M95.0222 39.5556C96.2666 38.4001 97.7778 37.7778 99.0222 37.7778C101.067 37.7778 102.311 39.2001 102.311 41.5112V45.8667C102.311 46.9334 102.756 47.5556 103.378 47.5556C103.556 47.5556 104.267 47.4667 104.444 47.3778V48.0889C103.644 48.6223 102.844 48.9778 102.133 48.9778C101.333 48.9778 100.8 48.5334 100.178 47.3778C98.9333 48.3556 97.9555 48.9778 97.0666 48.9778C95.6444 48.9778 94.5778 47.7334 94.5778 46.2223C94.5778 44.6223 95.4666 43.7334 97.5111 43.2889L99.8222 42.6667V41.2445C99.8222 40.0001 99.4666 39.1112 98.0444 39.1112C97.2444 39.1112 96.3555 39.4667 95.0222 40.2667V39.5556ZM96.8889 45.8667C96.8889 46.6667 97.5111 47.2889 98.2222 47.2889C98.7555 47.2889 99.2889 47.0223 99.9111 46.4889V43.6445C97.7778 44.1778 96.8889 44.8889 96.8889 45.8667Z" fill="#005285"/>
<path d="M105.244 47.6444H107.2V39.1111H105.244V38.0444H109.511V39.2C110.756 38.3111 112 37.6888 113.422 37.6888C115.111 37.6888 116.356 38.7555 116.356 40.8V47.5555H118.222V48.6222H112.356V47.5555H114.044V41.3333C114.044 39.9111 113.244 39.1111 112.178 39.1111C111.378 39.1111 110.4 39.5555 109.511 40.2666V47.5555H111.289V48.6222H105.244V47.6444Z" fill="#005285"/>
<path d="M126.578 47.6444H125.6C123.111 47.6444 121.333 46.4889 121.333 43.2C121.333 40.6222 122.4 39.1111 124.178 39.1111C124.978 39.1111 125.867 39.5556 126.667 40.2667V47.6444H126.578ZM124.711 33.0667H126.578V39.1111C125.511 38.2222 124.444 37.7778 123.378 37.7778C120.8 37.7778 118.667 40.2667 118.667 43.2C118.667 46.5778 121.067 48.6222 124.711 48.6222H130.756V47.5556H128.889V32H124.711V33.0667Z" fill="#005285"/>
<path d="M139.022 47.3778H141.156V34.7556H139.022V33.5111H145.689V34.7556H143.556V47.3778H145.689V48.6222H139.022V47.3778Z" fill="#005285"/>
<path d="M147.2 47.6445H149.067V39.1112H147.2V38.0445H151.378V39.2889C152.978 38.4001 154.222 37.7778 155.556 37.7778C156.8 37.7778 157.778 38.4001 158.133 39.5556C159.2 38.7556 160.978 37.7778 162.4 37.7778C164.356 37.7778 165.422 39.0223 165.422 41.3334V47.6445H167.289V48.7112H161.333V47.6445H163.111V42.0445C163.111 40.2667 162.489 39.3778 161.156 39.3778C160.356 39.3778 159.289 39.8223 158.4 40.5334V47.7334H160.267V48.8001H154.311V47.7334H156.089V42.4889C156.089 40.7112 155.822 39.4667 154.222 39.4667C153.244 39.4667 152.622 39.9112 151.378 40.6223V47.8223H153.156V48.8889H147.111V47.6445H147.2Z" fill="#005285"/>
<path d="M168.267 47.6445H170.133V39.1112H168.267V38.0445H172.444V39.2889C174.044 38.4001 175.289 37.7778 176.622 37.7778C177.867 37.7778 178.844 38.4001 179.2 39.5556C180.267 38.7556 182.044 37.7778 183.467 37.7778C185.422 37.7778 186.489 39.0223 186.489 41.3334V47.6445H188.356V48.7112H182.4V47.6445H184.178V42.0445C184.178 40.2667 183.556 39.3778 182.222 39.3778C181.422 39.3778 180.356 39.8223 179.467 40.5334V47.7334H181.333V48.8001H175.378V47.7334H177.156V42.4889C177.156 40.7112 176.889 39.4667 175.289 39.4667C174.311 39.4667 173.689 39.9112 172.444 40.6223V47.8223H174.222V48.8889H168.178V47.6445H168.267Z" fill="#005285"/>
<path d="M189.333 47.6444H191.2V39.1111H189.333V38.0444H193.511V47.5555H195.289V48.6222H189.333V47.6444ZM193.511 35.1111C193.511 35.9111 192.889 36.5333 192.089 36.5333C191.289 36.5333 190.667 35.9111 190.667 35.1111C190.667 34.3111 191.289 33.6888 192.089 33.6888C192.889 33.6888 193.511 34.4 193.511 35.1111Z" fill="#005285"/>
<path d="M198.578 41.7778C198.578 39.8223 199.467 38.6667 200.889 38.6667C202.311 38.6667 203.111 39.8223 203.111 41.8667C203.111 43.8223 202.222 44.9778 200.889 44.9778C199.467 44.9778 198.578 43.8223 198.578 41.7778ZM206.311 38.1334H203.022C202.667 38.1334 202.4 38.0445 202.044 37.9556C201.689 37.8667 201.244 37.7778 200.622 37.7778C197.955 37.7778 196.178 39.3778 196.178 41.8667C196.178 43.9112 197.333 45.2445 199.644 45.8667V45.9556L199.289 46.0445C198.044 46.4001 197.511 46.9334 197.511 47.7334C197.511 48.3556 197.955 48.9778 198.844 49.5112C196.711 50.2223 195.733 51.1112 195.733 52.1778C195.733 53.5112 197.6 55.1112 200.978 55.1112C204.178 55.1112 206.311 53.7778 206.311 51.6445C206.311 51.0223 206.133 50.4889 205.6 49.9556C204 48.3556 199.822 48.3556 199.822 47.1112C199.822 46.9334 199.911 46.9334 200 46.7556C200.8 45.9556 202.667 46.5778 204.533 44.7112C205.244 44.0001 205.689 42.9334 205.689 41.9556C205.689 40.9778 205.333 40.1778 204.622 39.3778H206.489V38.1334H206.311ZM199.644 49.7778C203.022 50.7556 204.178 51.2889 204.178 52.1778C204.178 52.6223 203.822 53.0667 203.378 53.2445C202.844 53.4223 201.867 53.6001 200.978 53.6001C199.2 53.6001 197.955 52.8889 197.955 51.8223C197.955 51.0223 198.4 50.5778 199.644 49.7778Z" fill="#005285"/>
<path d="M207.378 47.6445H209.244V39.1112H207.378V38.0445H211.644V39.8223H211.733C212.978 38.2223 213.6 37.7778 214.311 37.7778C214.933 37.7778 215.467 38.0445 216.089 38.7556C215.911 39.8223 215.556 40.7112 215.111 41.3334C214.489 40.1778 214.133 39.8223 213.422 39.8223C212.711 39.8223 212.178 40.2667 211.644 41.0667V47.5556H213.511V48.6223H207.378V47.6445Z" fill="#005285"/>
<path d="M222.044 43.6445V46.4889C221.422 47.0223 220.8 47.2889 220.356 47.2889C219.556 47.2889 219.022 46.6667 219.022 45.8667C219.022 44.8001 219.822 44.1778 222.044 43.6445ZM217.333 40.2667C218.578 39.4667 219.467 39.1112 220.356 39.1112C221.778 39.1112 222.133 40.0001 222.133 41.2445V42.6667L219.822 43.2889C217.778 43.8223 216.889 44.7112 216.889 46.2223C216.889 47.7334 217.956 48.9778 219.378 48.9778C220.267 48.9778 221.244 48.3556 222.489 47.3778C223.022 48.5334 223.644 48.9778 224.444 48.9778C225.156 48.9778 225.956 48.7112 226.756 48.0889V47.3778C226.489 47.4667 225.867 47.5556 225.689 47.5556C225.067 47.5556 224.622 46.9334 224.622 45.8667V41.5112C224.622 39.2001 223.378 37.7778 221.333 37.7778C220.089 37.7778 218.578 38.4001 217.333 39.5556V40.2667Z" fill="#005285"/>
<path d="M226.311 39.1111L230.133 35.2V38.0444H233.067V39.1111H230.133V45.2444C230.133 46.9333 230.578 47.7333 231.556 47.7333C232.533 47.7333 233.067 46.9333 233.333 46.9333C233.511 46.9333 233.6 47.1111 233.6 47.2888C233.6 47.5555 232.622 49.0666 230.844 49.0666C228.889 49.0666 227.822 47.8222 227.822 45.5111V39.1111H226.311Z" fill="#005285"/>
<path d="M234.578 47.6444H236.444V39.1111H234.578V38.0444H238.756V47.5555H240.533V48.6222H234.578V47.6444ZM238.756 35.1111C238.756 35.9111 238.133 36.5333 237.333 36.5333C236.533 36.5333 235.911 35.9111 235.911 35.1111C235.911 34.3111 236.533 33.6888 237.333 33.6888C238.133 33.6888 238.756 34.4 238.756 35.1111Z" fill="#005285"/>
<path d="M243.822 43.3778C243.822 40.5334 245.067 38.8445 247.022 38.8445C249.067 38.8445 250.222 40.5334 250.222 43.3778C250.222 46.2223 249.067 47.9112 247.022 47.9112C245.067 47.9112 243.822 46.2223 243.822 43.3778ZM241.244 43.3778C241.244 46.4889 243.822 48.9778 247.111 48.9778C250.4 48.9778 252.978 46.4889 252.978 43.3778C252.978 40.2667 250.4 37.7778 247.111 37.7778C243.822 37.7778 241.244 40.2667 241.244 43.3778Z" fill="#005285"/>
<path d="M253.689 47.6444H255.644V39.1111H253.689V38.0444H257.956V39.2C259.2 38.3111 260.444 37.6888 261.867 37.6888C263.556 37.6888 264.8 38.7555 264.8 40.8V47.5555H266.667V48.6222H260.8V47.5555H262.489V41.3333C262.489 39.9111 261.689 39.1111 260.622 39.1111C259.822 39.1111 258.844 39.5555 257.956 40.2666V47.5555H259.733V48.6222H253.778V47.6444H253.689Z" fill="#005285"/>
<path d="M148.711 24.889C147.2 26.1334 145.333 26.6667 143.2 26.6667C138.667 26.6667 135.467 23.2001 135.467 18.9334C135.467 14.3112 138.844 10.9334 143.378 10.9334C144.622 10.9334 145.867 11.2001 147.022 11.5556L147.2 10.6667H148.178V15.1112H147.022C146.578 13.2445 145.244 12.1779 143.289 12.1779C140.356 12.1779 138.4 14.7556 138.4 18.5779C138.4 22.6667 140.622 25.4223 143.911 25.4223C145.422 25.4223 146.933 24.889 148.622 23.5556V24.889H148.711Z" fill="#005285"/>
<path d="M150.044 25.4222H151.911V16.8889H150.044V15.8222H154.222V25.3333H156V26.4H150.044V25.4222ZM154.222 12.8889C154.222 13.6889 153.6 14.3111 152.8 14.3111C152 14.3111 151.378 13.6889 151.378 12.8889C151.378 12.0889 152 11.4667 152.8 11.4667C153.6 11.4667 154.222 12.0889 154.222 12.8889Z" fill="#005285"/>
<path d="M157.156 16.8889L160.978 12.9778V15.8222H163.911V16.8889H160.889V23.0222C160.889 24.7111 161.333 25.5111 162.311 25.5111C163.289 25.5111 163.822 24.7111 164.089 24.7111C164.267 24.7111 164.356 24.8889 164.356 25.0667C164.356 25.3333 163.378 26.8445 161.6 26.8445C159.644 26.8445 158.578 25.6 158.578 23.2889V16.8889H157.156Z" fill="#005285"/>
<path d="M165.333 25.4222H167.2V16.8889H165.333V15.8222H169.511V25.3333H171.289V26.4H165.333V25.4222ZM169.6 12.8889C169.6 13.6889 168.978 14.3111 168.178 14.3111C167.378 14.3111 166.755 13.6889 166.755 12.8889C166.755 12.0889 167.378 11.4667 168.178 11.4667C168.889 11.4667 169.6 12.0889 169.6 12.8889Z" fill="#005285"/>
<path d="M172.533 15.8223H181.333V16.2667L175.289 25.4223H180.711V23.5556H181.6V26.4H172.089V25.9556L178.044 16.8H173.333V18.2223H172.444V15.8223H172.533Z" fill="#005285"/>
<path d="M185.333 19.289C185.511 17.5112 186.044 16.6223 187.467 16.6223C188.8 16.6223 189.689 17.6001 189.867 19.289H185.333ZM192.355 20.2668C191.911 17.2446 190.311 15.5557 187.644 15.5557C184.711 15.5557 182.844 17.6001 182.844 20.8001C182.844 23.7334 184.8 26.6668 188.355 26.6668C189.778 26.6668 190.578 26.4001 192.355 25.3334L192.533 24.1779C191.289 24.9779 190.133 25.4223 188.978 25.4223C186.755 25.4223 185.333 23.289 185.333 20.2668H192.355Z" fill="#005285"/>
<path d="M193.511 25.4222H195.467V16.8889H193.511V15.8222H197.778V16.9778C199.022 16.0889 200.267 15.4667 201.689 15.4667C203.378 15.4667 204.622 16.5333 204.622 18.5778V25.3333H206.489V26.4H200.622V25.3333H202.311V19.1111C202.311 17.6889 201.511 16.8889 200.444 16.8889C199.644 16.8889 198.667 17.3333 197.778 18.0445V25.3333H199.556V26.4H193.6V25.4222H193.511Z" fill="#005285"/>
<path d="M207.644 23.1111H208.178C208.533 24.7111 209.689 25.6 210.933 25.6C212.089 25.6 212.8 25.0667 212.8 24.1778C212.8 22.4889 210.311 22.4889 208.533 20.8C207.822 20.0889 207.556 19.2889 207.556 18.5778C207.556 16.8889 209.156 15.4667 211.022 15.4667C211.733 15.4667 212.267 15.6445 213.156 16.0889V15.4667H213.956V18.3111H213.333C213.067 17.1556 212.178 16.5333 211.2 16.5333C210.311 16.5333 209.6 17.1556 209.6 17.9556C209.6 19.4667 212.356 19.9111 213.956 21.5111C214.578 22.1333 214.844 22.8445 214.844 23.5556C214.844 25.4222 213.333 26.6667 211.289 26.6667C210.311 26.6667 209.689 26.4889 208.622 25.8667L208.444 26.5778H207.733V23.1111H207.644Z" fill="#005285"/>
<path d="M215.733 25.4223H217.689V10.8445H215.733V9.77783H220V17.0667C221.067 16.1778 222.489 15.5556 223.911 15.5556C225.422 15.5556 226.844 16.5334 226.844 18.7556V25.4223H228.622V26.4889H222.667V25.4223H224.444V19.2001C224.444 17.7778 223.644 16.9778 222.489 16.9778C221.778 16.9778 220.889 17.3334 219.911 18.0445V25.4223H221.6V26.4889H215.644V25.4223H215.733Z" fill="#005285"/>
<path d="M229.689 25.4222H231.556V16.8889H229.689V15.8222H233.867V25.3333H235.644V26.4H229.689V25.4222ZM233.956 12.8889C233.956 13.6889 233.333 14.3111 232.533 14.3111C231.733 14.3111 231.111 13.6889 231.111 12.8889C231.111 12.0889 231.733 11.4667 232.533 11.4667C233.333 11.4667 233.956 12.0889 233.956 12.8889Z" fill="#005285"/>
<path d="M241.067 18.0446C241.956 16.9779 242.578 16.6223 243.378 16.6223C245.156 16.6223 246.311 18.489 246.311 21.5112C246.311 23.8223 245.333 25.6001 243.556 25.6001C242.578 25.6001 241.6 24.9779 241.067 24.089V18.0446ZM236.8 32.6223H242.844V31.5557H240.978V25.8668C241.778 26.489 242.667 26.7557 243.733 26.7557C247.644 26.7557 248.889 23.5557 248.889 20.9779C248.889 17.0668 246.222 15.5557 244.089 15.5557C243.467 15.5557 242.933 15.6446 242.4 15.8223C241.867 16.0001 241.422 16.3557 240.889 16.889V15.8223H236.711V16.889H238.578V31.5557H236.711V32.6223H236.8Z" fill="#005285"/>
<path d="M94.7555 66.2223H96V68.1779C96.9778 69.4223 98.0444 69.9557 99.0222 69.9557C100.444 69.9557 101.511 68.889 101.511 67.5557C101.511 64.9779 97.9555 64.5334 95.9111 62.489C94.9333 61.5112 94.5778 60.4446 94.5778 59.4668C94.5778 57.5112 96.2666 55.5557 98.8444 55.5557C99.9111 55.5557 100.889 55.7334 101.778 56.3557V55.5557H103.022V59.6446H101.778V58.0446C101.156 57.2446 100.178 56.7112 99.1111 56.7112C97.4222 56.7112 96.7111 57.689 96.7111 58.8446C96.7111 61.2446 100.178 61.6001 102.4 63.7334C103.378 64.7112 103.733 65.5112 103.733 66.7557C103.733 69.3334 101.867 71.1112 99.2 71.1112C98.0444 71.1112 97.1555 70.7557 96 70.0446V71.1112H94.7555V66.2223Z" fill="#005285"/>
<path d="M107.822 63.6446C108 61.8668 108.533 60.9779 109.956 60.9779C111.289 60.9779 112.089 61.9557 112.356 63.6446H107.822ZM114.844 64.7112C114.4 61.689 112.8 60.0001 110.133 60.0001C107.2 60.0001 105.333 62.0446 105.333 65.2446C105.333 68.1779 107.289 71.1112 110.844 71.1112C112.267 71.1112 113.067 70.8446 114.844 69.7779L115.022 68.6223C113.778 69.4223 112.622 69.8668 111.467 69.8668C109.244 69.8668 107.822 67.7335 107.822 64.7112H114.844Z" fill="#005285"/>
<path d="M116 69.7779H117.867V61.2446H116V60.1779H120.267V61.9557H120.356C121.6 60.3557 122.222 59.9113 122.933 59.9113C123.556 59.9113 124.089 60.1779 124.711 60.889C124.533 61.9557 124.178 62.8446 123.733 63.4668C123.111 62.3113 122.756 61.9557 122.044 61.9557C121.333 61.9557 120.8 62.4001 120.267 63.2001V69.689H122.133V70.7557H116V69.7779Z" fill="#005285"/>
<path d="M125.422 60.2667H130.756V61.3334H129.333L131.822 67.2889L133.956 61.3334H132.444V60.2667H136.533V61.3334H135.111L131.556 71.1112H131.111L126.933 61.3334H125.511V60.2667H125.422Z" fill="#005285"/>
<path d="M137.6 69.7779H139.467V61.2445H137.6V60.1779H141.778V69.689H143.556V70.7556H137.6V69.7779Z" fill="#005285"/>
<path d="M153.333 63.289H152.622C152.355 61.7779 151.2 60.9779 150.133 60.9779C148.444 60.9779 147.289 62.2224 147.289 64.889C147.289 68.0001 148.444 69.689 150.667 69.689C152.356 69.689 153.422 68.5335 153.689 68.5335C153.867 68.5335 154.044 68.9779 154.044 69.1557C154.044 69.6001 152.267 71.1113 149.955 71.1113C147.022 71.1113 144.711 68.6224 144.711 65.2446C144.711 62.1335 146.844 59.9113 149.778 59.9113C150.667 59.9113 151.289 60.089 152.533 60.5335L152.711 59.9113H153.422V63.289H153.333Z" fill="#005285"/>
<path d="M157.778 63.6446C157.956 61.8668 158.489 60.9779 159.911 60.9779C161.244 60.9779 162.044 61.9557 162.311 63.6446H157.778ZM164.711 64.7112C164.267 61.689 162.667 60.0001 160 60.0001C157.067 60.0001 155.2 62.0446 155.2 65.2446C155.2 68.1779 157.156 71.1112 160.711 71.1112C162.133 71.1112 162.933 70.8446 164.711 69.7779L164.889 68.6223C163.644 69.4223 162.489 69.8668 161.333 69.8668C159.111 69.8668 157.689 67.7335 157.689 64.7112H164.711Z" fill="#005285"/>
<path d="M166.4 67.5557H166.933C167.289 69.1557 168.444 70.0446 169.689 70.0446C170.844 70.0446 171.555 69.5113 171.555 68.6224C171.555 66.9335 169.067 66.9335 167.289 65.2446C166.578 64.5335 166.311 63.7335 166.311 63.0224C166.311 61.3335 167.911 59.9113 169.778 59.9113C170.489 59.9113 171.022 60.089 171.911 60.5335V59.9113H172.711V62.7557H172.089C171.822 61.6001 170.933 60.9779 169.955 60.9779C169.067 60.9779 168.355 61.6001 168.355 62.4001C168.355 63.9113 171.111 64.3557 172.711 65.9557C173.333 66.5779 173.6 67.289 173.6 68.0001C173.6 69.8668 172.089 71.1113 170.044 71.1113C169.067 71.1113 168.444 70.9335 167.378 70.3113L167.2 71.0224H166.489V67.5557H166.4Z" fill="#005285"/>
<path d="M141.778 57.2446C141.778 58.0446 141.156 58.6668 140.356 58.6668C139.556 58.6668 138.933 58.0446 138.933 57.2446C138.933 56.4446 139.556 55.8224 140.356 55.8224C141.156 55.8224 141.778 56.5335 141.778 57.2446Z" fill="#005285"/>
<path d="M40 0.177734C18.0445 0.177734 0.177795 18.0444 0.177795 40C0.177795 61.9555 17.9556 79.8222 40 79.8222C61.9556 79.8222 79.8222 62.0444 79.8222 40C79.8222 18.0444 61.9556 0.177734 40 0.177734Z" fill="white"/>
<path d="M64.2666 25.5999C63.8222 25.7777 63.3778 25.8666 62.9333 25.9554C65.4222 30.0443 66.8444 34.8443 66.8444 39.911C66.8444 54.7554 54.8444 66.8443 39.9111 66.8443C25.0666 66.8443 12.9778 54.8443 12.9778 39.911C12.9778 34.5777 14.5778 29.5999 17.2444 25.4221C16.8 25.3332 16.3555 25.1554 16 24.9777C13.3333 29.3332 11.8222 34.4888 11.8222 39.9999C11.8222 55.5554 24.4444 68.2666 40.0889 68.2666C55.6444 68.2666 68.3555 55.6443 68.3555 39.9999C68.2666 34.7554 66.7555 29.8665 64.2666 25.5999Z" fill="#C11330"/>
<path d="M24.3556 18.1333C28.8 15.0222 34.1333 13.1555 40 13.1555C46.4889 13.1555 52.4444 15.4666 57.1556 19.2888C57.6889 19.1111 58.2222 19.0222 58.7555 18.8444C53.7778 14.3999 47.2 11.7333 40.0889 11.7333C33.6889 11.7333 27.7333 13.8666 23.0222 17.5111C23.2889 17.5999 23.4667 17.6888 23.7333 17.7777C23.8222 17.8666 24.0889 18.0444 24.3556 18.1333Z" fill="#C11330"/>
<path d="M40 0C17.8667 0 0 17.8667 0 40C0 62.1333 17.8667 80 40 80C62.1333 80 80 62.1333 80 40C80 17.8667 62.1333 0 40 0ZM40 77.5111C19.2889 77.5111 2.48889 60.7111 2.48889 40C2.48889 19.2889 19.2889 2.48889 40 2.48889C60.7111 2.48889 77.5111 19.2889 77.5111 40C77.5111 60.7111 60.7111 77.5111 40 77.5111Z" fill="#BDBFC1"/>
<path d="M30.3111 31.9999C29.7777 31.7333 29.2444 31.3777 28.7111 30.8444C27.0222 29.3333 26.6666 27.6444 27.1111 25.7777C27.3777 24.6222 27.9111 24.0888 27.7333 22.9333C27.6444 22.2222 27.2 21.6888 26.6666 21.2444C25.5111 20.1777 24.1777 19.4666 22.1333 18.7555C20.8889 18.3111 17.2444 17.2444 15.6444 15.7333C15.2889 16.7999 16.0889 18.2222 16.9778 18.3999C16.1778 18.4888 15.4666 18.9333 15.1111 19.3777C15.7333 20.0888 16.9778 20.7999 17.9555 20.8888C17.5111 21.2444 16.8889 21.8666 16.7111 22.2222C17.6 22.6666 18.9333 23.1111 20.0889 23.0222C19.6444 23.3777 19.2889 23.8222 19.0222 24.2666C19.7333 24.6222 21.1555 25.0666 22.4889 25.1555C21.9555 25.4222 21.2444 26.2222 20.8889 26.7555C21.6 27.1111 23.2889 27.2888 24.2666 27.3777C23.5555 27.7333 22.7555 28.5333 22.4 29.2444C23.1111 29.5999 24.5333 29.9555 25.6889 29.9555C25.1555 30.4888 24.8 31.1111 24.5333 31.7333C25.4222 31.9111 26.3111 31.9111 27.2889 31.7333C26.6666 32.5333 26.4 33.5999 26.3111 34.3111C27.2 34.3111 28.2666 34.1333 29.0666 33.5999C28.8889 34.2222 28.8889 35.1111 29.2444 35.7333C29.6 35.6444 29.9555 35.5555 30.4 35.2888C30.4 34.2222 30.4 32.9777 30.3111 31.9999Z" fill="#005285"/>
<path d="M64.8 17.7778C63.2 19.2001 60.6222 19.6445 57.9555 20.5334C55.9111 21.1556 54.6666 21.6001 52.8889 23.0223C52.3555 23.4667 51.9111 24.0001 51.9111 25.0667C52 26.2223 52.1778 26.7556 52.1778 28.3556C52.1778 29.5112 51.8222 30.4001 51.2889 30.9334C50.7555 31.4667 50.1333 32.0001 49.5111 32.3556C49.5111 33.3334 49.4222 34.3112 49.3333 35.4667C49.7778 35.7334 50.3111 35.9112 50.5778 36.0001C50.8444 35.3778 50.9333 34.4889 50.7555 33.8667C51.5555 34.3112 52.7111 34.5778 53.5111 34.5778C53.4222 33.7778 53.1555 32.8001 52.5333 32.0001C53.6 32.1778 54.4889 32.1778 55.2889 32.0001C55.1111 31.3778 54.6666 30.7556 54.1333 30.2223C55.2889 30.2223 56.6222 29.8667 57.4222 29.5112C56.9778 28.8001 56.2666 28.0889 55.5555 27.6445C56.5333 27.5556 58.2222 27.3778 59.0222 27.0223C58.6666 26.4889 57.8666 25.6889 57.4222 25.4223C58.7555 25.3334 60.1778 24.8001 60.8889 24.5334C60.6222 24.0889 60.2666 23.6445 59.8222 23.2889C61.0666 23.2001 62.3111 22.9334 63.2 22.4889C63.0222 22.1334 62.4 21.4223 61.9555 21.1556C64.8 20.0889 64.8 18.7556 64.8 17.7778Z" fill="#005285"/>
<path d="M53.5111 20.6222C49.6889 17.9556 45.0667 16.4445 40 16.4445C35.4667 16.4445 31.2 17.7778 27.5555 20C28.5333 20.7111 29.0667 21.5111 29.1555 22.3111C29.2444 23.0222 29.3333 23.8222 28.9778 25.0667C28.5333 26.4 28.3555 27.7333 29.2444 29.0667C30.2222 30.4 31.4667 31.0222 32.5333 31.2C33.8667 30.9333 35.3778 30.7556 36.8889 30.6667C37.0667 30.0445 37.6889 29.5111 38.2222 29.0667C39.0222 28.4445 38.8444 27.8222 38.6667 27.3778C38.4889 27.0222 38.2222 26.7556 37.7778 26.4889C37.4222 26.3111 36 26.1333 36.0889 27.0222C35.8222 26.6667 35.6444 26.3111 35.8222 25.6889C36 24.8889 37.2444 24.7111 37.6 24.7111C37.3333 24.5333 37.5111 24.1778 38.0444 24C38.7555 23.8222 39.3778 23.8222 40 23.8222C41.2444 23.8222 41.4222 24.1778 42.1333 24.7111C42.9333 25.4222 43.9111 25.6 44.3555 25.2445C44.0889 25.8667 43.1111 26.2222 42.5778 26.1333C42.8444 27.0222 42.9333 27.8222 43.1111 28.8C43.2 29.2445 43.2889 29.9556 43.3778 30.5778C45.0667 30.7556 46.7555 30.9333 48.2667 31.2C48.8889 31.0222 49.5111 30.6667 50.1333 29.9556C50.6667 29.3333 51.2 28.5333 50.9333 26.4889C50.8444 25.9556 50.5778 24.4445 50.6667 23.8222C50.5778 22.4 51.6444 21.4222 53.5111 20.6222Z" fill="#005285"/>
<path d="M37.7778 24.8001C38.0444 24.9778 38.1333 24.9778 38.2222 24.9778L38.3111 25.0667C38.4 25.0667 38.4 25.1556 38.4 25.1556C38.4889 25.1556 38.7556 24.9778 39.0222 24.8889C39.2889 24.8001 39.6444 24.7112 39.6444 24.7112C38.5778 24.5334 38.4 24.8889 37.7778 24.8001Z" fill="#005285"/>
<path d="M39.3778 43.4666L38.9333 43.1999L38.6667 42.3999L37.9555 42.1333L37.1555 41.4222L36.7111 41.9555L36 42.1333L35.5555 42.7555L35.0222 43.3777L34.3111 43.7333L33.7778 44.6222L33.5111 44.9777L32.9778 45.3333L32.7111 45.0666L32.3555 45.3333L32 46.0444C31.8222 45.511 31.6444 45.1555 31.6444 44.2666C31.5555 42.7555 31.3778 40.7999 31.2889 38.7555C33.8667 38.2222 37.0667 37.8666 39.7333 37.7777V43.8222C39.5555 43.8222 39.4667 43.8222 39.3778 43.4666Z" fill="#0078AB"/>
<path d="M39.7334 46.4H32.1778C32.2667 46.6667 32.4445 46.8445 32.5333 47.0222C33.0667 47.8222 33.8667 48.3556 34.8445 48.6222C36.1778 49.0667 37.0667 49.3334 37.6889 49.5111L38.4 49.7778C39.0222 49.9556 39.4667 50.2222 39.7334 50.5778V46.4Z" fill="#5E9432"/>
<path d="M47.7334 43.4666C47.9111 43.2888 48.1778 43.1111 48.5334 43.0222C48.5334 42.3111 48.6223 41.6 48.7111 40.8C48.6223 40.8888 48.5334 40.8888 48.4445 40.9777C48.0889 41.2444 47.6445 41.5999 46.8445 41.5999C46.1334 41.5999 45.6 41.3333 45.2445 41.0666C44.8889 40.8888 44.7111 40.7111 44.2667 40.7111C43.8223 40.7111 43.4667 40.8888 43.1111 41.1555C42.6667 41.4222 42.2223 41.6888 41.6889 41.6888C41.1556 41.6888 40.7111 41.5111 40.3556 41.3333V43.4666C40.4445 43.4666 40.5334 43.5555 40.6223 43.6444C40.9778 43.8222 41.2445 43.9999 41.6889 43.9999C41.9556 43.9999 42.2223 43.8222 42.5778 43.6444C43.0223 43.3777 43.5556 43.1111 44.1778 43.1111C44.8 43.1111 45.2445 43.3777 45.6 43.6444C45.9556 43.8222 46.2223 43.9999 46.6667 43.9999C47.2 43.9111 47.3778 43.7333 47.7334 43.4666Z" fill="#005285"/>
<path d="M41.6 48.3556C41.0667 48.3556 40.6222 48.1778 40.2667 48.0001V50.5778C40.5333 50.3112 40.9778 50.0445 41.6 49.7778L42.3111 49.5112C42.9333 49.3334 43.8222 49.0667 45.1556 48.6223C45.5111 48.5334 45.8667 48.3556 46.2222 48.1778C45.7778 48.0889 45.4222 47.9112 45.0667 47.6445C44.7111 47.4667 44.5333 47.2889 44.0889 47.2889C43.6444 47.2889 43.2889 47.4667 42.9333 47.7334C42.6667 48.0001 42.1333 48.3556 41.6 48.3556Z" fill="#005285"/>
<path d="M47.7334 40.1778C48 40 48.2667 39.7334 48.7111 39.6445C48.7111 39.3778 48.7111 39.1111 48.8 38.8445C46.2223 38.3111 43.0223 37.9556 40.3556 37.8667V40.1778C40.4445 40.1778 40.5334 40.2667 40.6223 40.3556C40.9778 40.5334 41.2445 40.7111 41.6889 40.7111C41.9556 40.7111 42.2223 40.5334 42.5778 40.3556C43.0223 40.0889 43.5556 39.8223 44.1778 39.8223C44.8 39.8223 45.2445 40.0889 45.6 40.3556C45.9556 40.5334 46.2223 40.7111 46.6667 40.7111C47.2 40.6223 47.3778 40.4445 47.7334 40.1778Z" fill="#005285"/>
<path d="M40.2667 44.6222V46.8444C40.3556 46.8444 40.4444 46.9333 40.5333 47.0222C40.8889 47.2 41.1556 47.3777 41.6 47.3777C41.8667 47.3777 42.1333 47.2 42.4889 47.0222C42.9333 46.7555 43.4667 46.4888 44.0889 46.4888C44.7111 46.4888 45.1556 46.7555 45.5111 47.0222C45.8667 47.2 46.1333 47.3777 46.5778 47.3777C46.9333 47.3777 47.2 47.2888 47.3778 47.1111C47.8222 46.4 48.1778 45.5111 48.1778 44.4444V44.3555C48.1778 44.3555 48.1778 44.3555 48.0889 44.4444C47.7333 44.7111 47.2889 45.0666 46.4889 45.0666C45.7778 45.0666 45.2444 44.8 44.8889 44.5333C44.5333 44.3555 44.3556 44.1777 43.9111 44.1777C43.4667 44.1777 43.1111 44.3555 42.7556 44.6222C42.3111 44.8888 41.8667 45.1555 41.3333 45.1555C41.0667 44.9777 40.6222 44.8 40.2667 44.6222Z" fill="#0078AB"/>
<path d="M40 31.0222C37.2445 31.0222 33.6 31.4667 30.9333 32C31.0222 33.7778 31.1111 36 31.2 38.2222C33.7778 37.6889 37.1556 37.3333 40 37.3333C42.8445 37.3333 46.2222 37.6889 48.8 38.3111C48.8889 36.0889 49.0667 33.8667 49.0667 32.0889C46.4 31.4667 42.7556 31.0222 40 31.0222ZM46.5778 32.7111L46.7556 32.2667L46.8445 32.7111L47.2889 32.8L46.8445 32.9778L46.9333 33.4222L46.5778 33.0667L46.1334 33.3333L46.4 32.8889L46.0445 32.5333L46.5778 32.7111ZM44.3556 32.4444L44.5333 32L44.6222 32.4444H45.0667L44.6222 32.6222L44.7111 33.0667L44.4445 32.8889L44 33.1555L44.2667 32.7111L43.9111 32.4444H44.3556ZM42.1334 32.2667L42.3111 31.8222L42.4 32.2667H42.8445L42.4 32.5333L42.5778 32.9778L42.2222 32.6222L41.8667 32.8889L42.0445 32.4444L41.6889 32.1778L42.1334 32.2667ZM39.9111 32.1778L40 31.7333L40.0889 32.1778H40.5333L40.0889 32.4444L40.2667 32.8889L40 32.6222L39.6445 32.8889L39.8222 32.4444L39.3778 32.1778H39.9111ZM37.6 32.2667L37.6889 31.8222L37.8667 32.2667L38.3111 32.1778L37.9556 32.4444L38.1334 32.8889L37.7778 32.6222L37.4222 32.9778L37.6 32.5333L37.1556 32.2667H37.6ZM35.3778 32.4444L35.4667 32L35.6445 32.4444L36.0889 32.3556L35.7334 32.6222L36 33.0667L35.5556 32.8889L35.2 33.2444L35.2889 32.8L34.8445 32.6222L35.3778 32.4444ZM33.1556 32.8L33.2445 32.3556L33.4222 32.8L33.8667 32.7111L33.5111 33.0667L33.7778 33.5111L33.3334 33.2444L32.9778 33.6L33.0667 33.1555L32.6222 32.9778L33.1556 32.8ZM32.2667 35.2889L32.3556 34.8444L31.9111 34.6667L32.3556 34.5778L32.4445 34.1333L32.6222 34.5778L33.0667 34.4889L32.7111 34.8444L32.9778 35.2889L32.5333 35.0222L32.2667 35.2889ZM34.0445 36.9778L33.6 36.7111L33.2445 37.0667L33.3334 36.6222L32.9778 36.4444L33.4222 36.3556L33.5111 35.9111L33.6889 36.3556L34.1334 36.2667L33.7778 36.6222L34.0445 36.9778ZM34.7556 34.6667L34.4 35.0222L34.4889 34.5778L34.0445 34.4H34.4889L34.5778 33.9555L34.7556 34.4L35.2 34.3111L34.8445 34.6667L35.1111 35.1111L34.7556 34.6667ZM36.1778 36.7111L35.8222 36.4444L35.4667 36.8L35.5556 36.3556L35.1111 36.0889H35.5556L35.6445 35.6444L35.8222 36.0889L36.2667 36L35.9111 36.2667L36.1778 36.7111ZM36.8889 34.4L36.5333 34.7555L36.7111 34.3111L36.2667 34.0444H36.7111L36.8 33.6L36.9778 34.0444L37.4222 33.9555L37.0667 34.2222L37.2445 34.6667L36.8889 34.4ZM38.3111 36.6222L37.9556 36.3556L37.6 36.7111L37.7778 36.2667L37.3333 35.9111H37.7778L37.8667 35.4667L38.0445 35.9111L38.4889 35.8222L38.1334 36.0889L38.3111 36.6222ZM39.0222 34.3111L38.6667 34.6667L38.8445 34.2222L38.4 33.9555H38.8445L38.9333 33.5111L39.1111 33.9555H39.5556L39.2 34.2222L39.3778 34.6667L39.0222 34.3111ZM40.4445 36.5333L40.0889 36.2667L39.7334 36.5333L39.9111 36.0889L39.4667 35.8222H39.9111L40 35.3778L40.0889 35.8222H40.5333L40.0889 36.0889L40.4445 36.5333ZM41.1556 34.3111L40.8 34.5778L40.9778 34.1333L40.6222 33.8667H41.0667L41.2445 33.4222L41.3333 33.8667H41.7778L41.3333 34.1333L41.5111 34.5778L41.1556 34.3111ZM42.5778 36.6222L42.2222 36.2667L41.8667 36.5333L42.0445 36.0889L41.6889 35.8222L42.1334 35.9111L42.3111 35.4667L42.4 35.9111H42.8445L42.4 36.1778L42.5778 36.6222ZM43.2889 34.4L42.8445 34.6667L43.0222 34.2222L42.6667 33.9555L43.1111 34.0444L43.2889 33.6L43.3778 34.0444H43.8222L43.3778 34.3111L43.5556 34.7555L43.2889 34.4ZM44.7111 36.8L44.3556 36.4444L43.9111 36.7111L44.1778 36.2667L43.8222 36L44.2667 36.0889L44.4445 35.6444L44.5333 36.0889H44.9778L44.5333 36.2667L44.7111 36.8ZM45.4222 34.6667L44.9778 34.9333L45.2445 34.4889L44.8889 34.1333L45.3333 34.2222L45.5111 33.7778L45.6 34.2222H46.0445L45.6 34.4L45.6889 34.8444L45.4222 34.6667ZM46.8445 37.1555L46.4889 36.8L46.0445 37.0667L46.3111 36.6222L45.9556 36.2667L46.4 36.3556L46.5778 35.9111L46.6667 36.3556L47.1111 36.4444L46.6667 36.6222L46.8445 37.1555ZM47.8222 35.3778L47.4667 35.0222L47.1111 35.2L47.3778 34.7555L47.0222 34.4L47.4667 34.4889L47.6445 34.0444V34.4889L48.0889 34.5778L47.6445 34.7555L47.8222 35.3778Z" fill="#005285"/>
<path d="M69.6889 25.6C70.7556 25.1555 72.0889 25.3333 72.3556 26.0444C72.7111 26.7555 72 27.8222 70.8445 28.3555C69.7778 28.8 68.4445 28.6222 68.1778 27.9111C67.8222 27.2 68.5333 26.1333 69.6889 25.6ZM71.2889 29.4222C72.7111 28.8 73.3333 27.2888 72.7111 25.9555C72.0889 24.6222 70.5778 24 69.1556 24.6222C67.7333 25.2444 67.1111 26.7555 67.7333 28.0888C68.3556 29.4222 69.9556 30.0444 71.2889 29.4222Z" fill="#005285"/>
<path d="M69.3334 33.0666L68.8 30.9333L69.1556 30.8444L69.3334 31.4666L73.7778 30.3111L73.6 29.6889L73.9556 29.6L74.7556 32.8L74.9334 32.7111L75.0223 33.1555L73.7778 33.5111L73.6889 33.0666L74.2223 32.8889L73.7778 31.2889L71.9112 31.7333L72.2667 32.9778L72.8889 32.8889L72.9778 33.3333L71.4667 33.6889L71.3778 33.2444L71.9112 33.0666L71.5556 31.8222L69.5112 32.3555L69.6001 32.8889L69.3334 33.0666Z" fill="#005285"/>
<path d="M7.11113 27.3778L6.93336 28.0001L9.7778 28.8889C10.6667 29.1556 11.1111 29.6 11.2 30.3112C11.2889 30.6667 11.2 31.1112 11.1111 31.4667C10.7556 32.7112 9.86669 33.3334 8.80002 32.9778L5.68891 32.0889L5.51113 32.7112L5.15558 32.6223L5.7778 30.4889L6.22225 30.5778L6.04447 31.1112L8.88891 32.0001C9.68891 32.2667 10.0445 32.1778 10.4 31.9112C10.5778 31.7334 10.6667 31.5556 10.7556 31.2889C11.0222 30.4001 10.6667 29.6889 9.68891 29.4223L6.84447 28.5334L6.66669 29.1556L6.31113 29.0667L6.84447 27.2889L7.11113 27.3778Z" fill="#005285"/>
<path d="M12.1778 28.6223C12.0889 28.8889 11.7334 28.9778 11.4667 28.8889C11.2 28.8 11.1111 28.4445 11.2 28.1778C11.2889 27.9112 11.6445 27.7334 11.9111 27.9112C12.1778 28.0889 12.2667 28.3556 12.1778 28.6223Z" fill="#005285"/>
<path d="M13.1556 26.4L12.9778 26.7555L11.7334 26.0444L11.9111 25.6888L12.4445 25.9555C12.8889 25.7777 13.0667 25.6 13.2445 25.2444C13.5111 24.8 13.4223 24.3555 13.0667 24.1777C12.7111 24 12.4445 24.0888 11.6445 24.5333C10.8445 24.9777 10.7556 24.9777 10.4 25.0666C10.1334 25.1555 9.77781 25.0666 9.51115 24.8888C8.71115 24.4444 8.53337 23.6444 9.0667 22.7555C9.24448 22.4888 9.42226 22.3111 9.60003 22.1333L9.42226 22.0444L9.60003 21.6888L10.7556 22.4L10.5778 22.7555L10.1334 22.4888C9.77781 22.6666 9.60004 22.8444 9.42226 23.1111C9.24448 23.4666 9.33337 23.9111 9.68892 24.0888C9.95559 24.2666 10.2223 24.1777 11.0223 23.7333C11.3778 23.5555 11.6445 23.3777 11.7334 23.3777C11.9111 23.2888 12.1778 23.2 12.4445 23.2C12.7111 23.2 12.9778 23.2888 13.2445 23.3777C14.0445 23.8222 14.3111 24.7111 13.7778 25.5111C13.5111 25.9555 13.3334 26.1333 12.9778 26.4H13.1556Z" fill="#005285"/>
<path d="M15.2889 22.7555C15.2889 23.0222 15.0222 23.2888 14.7556 23.2888C14.4889 23.2888 14.2222 23.0222 14.2222 22.7555C14.2222 22.4888 14.4889 22.2222 14.7556 22.2222C15.0222 22.2222 15.2889 22.4888 15.2889 22.7555Z" fill="#005285"/>
<path d="M27.5556 12.5334L24.1778 14.3112L24 14.0445L24.5333 13.7778L22.4 9.68893L21.8667 9.9556L21.6889 9.68893L24.6222 8.17782L24.5333 8.00004L24.8889 7.82227L25.5111 8.97782L25.1556 9.1556L24.8889 8.62227L23.3778 9.42227L24.2667 11.1112L25.4222 10.4889L25.1556 10.0445L25.5111 9.86671L26.2222 11.2889L25.8667 11.4667L25.6 10.9334L24.4445 11.5556L25.3333 13.3334L26.8445 12.5334L26.5778 12L26.9333 11.8223L27.5556 12.5334Z" fill="#005285"/>
<path d="M30.8444 11.3777L28.6222 12.0888L28.5333 11.7333L29.0667 11.5555L27.6444 7.19995L27.1111 7.37773L27.0222 7.11106L29.3333 6.31106C30.3111 6.04439 31.1111 6.39995 31.3778 7.19995C31.6444 7.99995 31.1111 8.97773 30.2222 9.24439C30.1333 9.24439 30.0444 9.33328 29.7778 9.33328L29.6889 8.97773C29.7778 8.97773 29.8667 8.97773 29.8667 8.88884C30.4 8.71106 30.5778 8.26662 30.3111 7.5555C30.0444 6.84439 29.6889 6.57773 29.1555 6.7555L28.7111 6.93328L30.1333 11.1999L30.7555 11.0222L30.8444 11.3777Z" fill="#005285"/>
<path d="M33.4223 8.44445L33.8667 6.31112L34.9334 8.17778L33.4223 8.44445ZM37.3334 9.60001L36.9778 9.68889L34.1334 4.97778L33.6889 5.06667L32.5334 10.4L32.0889 10.4889L32.1778 10.8444L33.7778 10.5778L33.6889 10.2222L33.0667 10.3111L33.3334 8.97778L35.2 8.62223L35.9112 9.77778L35.3778 9.86667L35.4667 10.2222L37.4223 9.86667L37.3334 9.60001Z" fill="#005285"/>
<path d="M39.5556 5.06664H40.0889C40.6223 5.06664 40.9778 5.42219 40.9778 6.04441C40.9778 6.66664 40.6223 7.11108 40.0889 7.11108H39.6445L39.5556 5.06664ZM42.8445 9.59997H42.4889C42.3112 9.59997 42.2223 9.51108 42.0445 9.24441L40.8889 7.46664C41.6001 7.19997 42.0445 6.75553 42.0445 6.04441C42.0445 5.59997 41.9556 5.24441 41.6889 4.97775C41.4223 4.71108 40.9778 4.62219 40.3556 4.62219H38.0445V4.97775H38.6667V9.59997H38.0445V9.95553H40.2667V9.59997H39.6445V7.55553H39.8223L40.9778 9.42219C41.2445 9.86664 41.3334 9.86664 41.7778 9.86664H42.7556L42.8445 9.59997Z" fill="#005285"/>
<path d="M46.4 10.5778L43.9112 10.1333L44 9.77777L44.8 9.86666L45.5112 5.5111L44.0889 5.33333L44 5.95555L43.5556 5.86666L43.8223 4.53333L44.2667 4.62221V4.79999L48 5.42221V5.24444L48.3556 5.33333L48.0889 6.66666L47.6445 6.57777L47.7334 5.95555L46.4 5.68888L45.6889 10.0444L46.4 10.1333V10.5778Z" fill="#005285"/>
<path d="M53.8667 13.0666L51.6445 12.1777L51.7334 11.8222L52.3556 12.0888L53.6 8.88884L50.6667 11.9111L50.2223 7.6444L48.9778 10.7555L49.6 11.0222L49.5112 11.3777L47.8223 10.6666L47.9112 10.3111L48.5334 10.5777L50.2223 6.31106L49.6 6.0444L49.6889 5.68884L51.0223 6.22218L51.4667 10.4L54.4 7.55551L55.9112 8.08884L55.8223 8.4444L55.2 8.17773L53.5112 12.4444L54.1334 12.7111L53.8667 13.0666Z" fill="#005285"/>
<path d="M57.7778 15.6444L54.5778 13.6L54.7556 13.3333L55.2889 13.6889L57.7778 9.77774L57.2445 9.42218L57.4223 9.15552L60.1778 10.9333L60.2667 10.7555L60.6223 11.0222L59.9112 12.0889L59.5556 11.8222L59.8223 11.3777L58.4 10.4889L57.4223 12.0889L58.4889 12.8L58.7556 12.3555L59.1112 12.6222L58.2223 13.9555L57.8667 13.6889L58.1334 13.2444L57.0667 12.5333L56 14.2222L57.4223 15.1111L57.7778 14.5777L58.1334 14.8444L57.7778 15.6444Z" fill="#005285"/>
<path d="M22.4 12.3555C21.5111 11.2 19.9111 10.9333 18.6667 11.8222L16.6223 13.3333L16.8 13.6L17.2445 13.2444L20 16.9777C20.0889 17.0666 20.2667 17.0666 20.3556 17.1555L21.6889 16.1778C22.3111 15.7333 22.6667 15.2 22.7556 14.4889C23.0223 13.6889 22.8445 12.8889 22.4 12.3555ZM21.4223 15.8222L20.8889 16.1778L18.3111 12.6222L18.8445 12.1777C19.5556 11.6444 20.8 12 21.5111 12.8889C22.2223 14.0444 22.2223 15.2 21.4223 15.8222Z" fill="#005285"/>
<path d="M64.5334 14.4888L64.2667 14.7555L64.7111 15.2L62.4889 17.6888L63.0223 13.2444L61.8667 12.1777L61.6 12.4444L62.0445 12.8L61.9556 13.2444L59.1111 16.3555L58.6667 15.9111L58.4 16.1777L59.7334 17.4222L60 17.1555L59.5556 16.7111L61.8667 14.1333L61.3334 18.2222C61.7778 18.1333 62.3111 17.9555 62.9334 17.7777C63.0223 17.7777 63.0222 17.7777 63.1111 17.7777L65.1556 15.5555L65.6889 16L65.9556 15.7333L64.5334 14.4888Z" fill="#005285"/>
<path d="M69.9556 20.2667L69.7778 20.4445L67.4667 17.4222L67.6445 17.2445L67.3778 16.8889L66.3111 17.7778L66.5778 18.1334L67.1111 17.6889L67.9111 18.7556L64.3556 21.4222L64.1778 21.1556C64.0889 21.2445 64 21.2445 63.9111 21.3334L65.2445 23.0222L65.5111 22.8445L65.0667 22.2222L68.6222 19.5556L69.4222 20.6223L68.8889 21.0667L69.1556 21.4222L70.2222 20.6223L69.9556 20.2667Z" fill="#005285"/>
<path d="M46.5778 75.0222L46.2222 75.1111L45.9556 73.6889L46.4 73.6L46.4889 74.1333C46.9334 74.3111 47.2 74.4 47.5556 74.3111C48 74.2222 48.3556 73.8667 48.2667 73.4222C48.1778 73.0667 47.9111 72.8889 47.1111 72.5333C46.2222 72.1778 46.1334 72.1778 45.8667 72C45.6 71.8222 45.4222 71.5555 45.4222 71.2C45.2445 70.3111 45.7778 69.6 46.6667 69.4222C46.9334 69.3333 47.2 69.3333 47.5556 69.4222L47.4667 69.1555L47.9111 69.0667L48.1778 70.4L47.7334 70.4889L47.6445 69.9555C47.2889 69.7778 47.0222 69.7778 46.7556 69.8667C46.3111 69.9555 46.1334 70.3111 46.2222 70.6667C46.3111 70.9333 46.4889 71.1111 47.3778 71.4667C47.8222 71.6444 48 71.7333 48.1778 71.7333C48.3556 71.8222 48.6222 71.9111 48.8 72.1778C48.9778 72.3555 49.1556 72.6222 49.1556 72.9778C49.3334 73.8667 48.8 74.6667 47.9111 74.8444C47.4667 74.9333 47.1111 74.9333 46.6667 74.7555L46.5778 75.0222Z" fill="#005285"/>
<path d="M54.7556 72.4445L51.2 73.8667L51.1112 73.5111L51.6445 73.3334L49.9556 69.0667L49.4223 69.3334L49.3334 68.9778L52.3556 67.7334L52.2667 67.5556L52.7112 67.3778L53.1556 68.5334L52.8 68.7111L52.6223 68.1778L51.1112 68.8L51.8223 70.5778L52.9778 70.1334L52.8 69.6L53.1556 69.4222L53.6889 70.8445L53.3334 71.0223L53.1556 70.4889L52 70.9334L52.7112 72.8L54.3112 72.1778L54.1334 71.6445L54.5778 71.4667L54.7556 72.4445Z" fill="#005285"/>
<path d="M60 69.2445C59.5556 69.7778 59.2 70.1334 58.7556 70.4C57.3334 71.2889 55.7334 70.9334 54.8445 69.6001C54.0445 68.2667 54.4889 66.6667 55.8222 65.7778C56.2667 65.5112 56.6222 65.4223 57.0667 65.3334L56.8889 65.0667L57.2445 64.8L57.9556 66.0445L57.6 66.3112L57.3334 65.8667C56.8 65.8667 56.5334 65.8667 56.1778 66.1334C55.2 66.6667 55.0222 67.9112 55.7334 69.0667C56.4445 70.1334 57.6889 70.5778 58.5778 70.0445C58.9334 69.8667 59.1111 69.6 59.2889 69.2445L58.9334 68.7112L59.2889 68.4445L60 69.2445Z" fill="#005285"/>
<path d="M62.4 61.0666L61.8667 61.5111L63.9112 63.7333C64.5334 64.3555 64.7112 65.0666 64.3556 65.6888C64.1778 66.0444 64 66.3999 63.6445 66.6666C62.6667 67.5555 61.6 67.5555 60.8889 66.7555L58.7556 64.3555L58.3112 64.7999L58.0445 64.5333L59.7334 63.0222L60 63.2888L59.5556 63.6444L61.6 65.8666C62.1334 66.4888 62.4889 66.6666 62.9334 66.4888C63.1112 66.3999 63.3778 66.3111 63.5556 66.1333C64.2667 65.5111 64.2667 64.7111 63.6445 63.9999L61.6889 61.7777L61.1556 62.2222L60.8889 61.9555L62.2223 60.7111L62.4 61.0666Z" fill="#005285"/>
<path d="M71.3778 56.3556L70.3111 58.3111L70.0445 58.1334L70.3111 57.6L66.3111 55.3778L65.9556 56L65.6889 55.8223L66.7556 53.8667L67.0222 54.0445L66.7556 54.5778L70.7556 56.8L71.0222 56.2667L71.3778 56.3556Z" fill="#005285"/>
<path d="M73.4222 51.6444L72.5333 54.0444L72.1778 53.9555L72.4444 53.2444L68.2667 51.5555L67.8222 52.8888L68.4444 53.1555L68.2667 53.5999L67.0222 53.1555L67.2 52.7111L67.3778 52.8L68.7111 49.2444L68.5333 49.1555L68.7111 48.7111L69.9555 49.1555L69.7778 49.5999L69.1556 49.3333L68.6222 50.6666L72.8 52.2666L73.0667 51.5555L73.4222 51.6444Z" fill="#005285"/>
<path d="M74.8445 45.7778L74.4 48L74.0445 47.9111L74.1334 47.2889L72 46.8445L69.3334 47.9111L69.2445 48.4445L68.8889 48.3556L69.3334 46.2222L69.6889 46.3111L69.6 46.9333L71.5556 46.1333L70.0445 44.8L69.8667 45.3333L69.5111 45.2445L69.8667 43.4667L70.2222 43.5556L70.1334 44.0889L72 45.7778L74.4 46.2222L74.4889 45.6L74.8445 45.7778Z" fill="#005285"/>
<path d="M69.4223 59.2889L69.2445 59.5556C69.1556 59.6445 69.0667 59.7333 68.7112 59.7333L66.6667 59.5556C66.9334 58.8445 66.7556 58.2222 66.2223 57.7778C65.8667 57.5111 65.5112 57.4222 65.1556 57.5111C64.7112 57.6 64.4445 57.7778 64 58.4L62.5778 60.2667L62.8445 60.4445L63.2 60L66.8445 62.7556L66.4889 63.2L66.7556 63.3778L68.0889 61.6L67.8223 61.4222L67.5556 61.8667L65.9556 60.7111L66.0445 60.5333L68.2667 60.7111C68.8 60.7111 68.8889 60.7111 69.1556 60.3556L69.7778 59.5556L69.4223 59.2889ZM63.9112 59.2L64.1778 58.7556C64.5334 58.3111 64.9778 58.2222 65.5111 58.6667C66.0445 59.0222 66.1334 59.6445 65.7778 60.0889L65.6 60.4445L63.9112 59.2Z" fill="#005285"/>
<path d="M6.31114 50.6666L5.7778 48.5333L6.13336 48.4444L6.22225 48.9777L8.26669 48.4444L7.64447 45.9555L5.60003 46.4888L5.7778 47.1111H5.42225L4.88892 44.9777L5.24447 44.8888L5.33336 45.5111L9.7778 44.4444L9.60003 43.8222L9.95558 43.7333L10.4889 45.8666L10.1334 45.9555L9.95558 45.3333L8.00003 45.7777L8.62225 48.2666L10.5778 47.8222L10.4 47.1999L10.7556 47.1111L11.2889 49.2444L10.9334 49.3333V48.8888L6.48892 49.9555L6.66669 50.5777L6.31114 50.6666Z" fill="#005285"/>
<path d="M9.33335 51.9111C10.4 51.3777 11.7333 51.6444 12 52.3555C12.3556 53.0666 11.6445 54.1333 10.5778 54.6666C9.51112 55.1999 8.17779 54.9333 7.91112 54.2222C7.55557 53.5111 8.26668 52.3555 9.33335 51.9111ZM11.0222 55.6444C12.4445 55.0222 12.9778 53.4222 12.4445 52.0888C11.8222 50.7555 10.2222 50.2222 8.8889 50.8444C7.46668 51.4666 6.84446 53.0666 7.46668 54.3999C8.0889 55.7333 9.6889 56.2666 11.0222 55.6444Z" fill="#005285"/>
<path d="M13.0667 63.2L11.6444 61.3334L11.9111 61.1556L12.2667 61.6889L15.0222 59.6445L10.8444 60.5334L12.8 56.8L10.2222 58.6667L10.5778 59.2L10.3111 59.3778L9.24445 57.8667L9.51111 57.6889L9.86667 58.2223L13.6 55.5556L13.2444 55.0223L13.5111 54.8445L14.3111 56L12.4444 59.7334L16.4444 58.9334L17.3333 60.1778L17.0667 60.3556L16.7111 59.8223L12.9778 62.4889L13.3333 63.0223L13.0667 63.2Z" fill="#005285"/>
<path d="M17.2444 67.2889L14.4889 64.7111L14.7556 64.4445L15.1111 64.8889L18.2222 61.5111L17.7778 61.1556L18.0444 60.8889L20.4444 63.1111L20.6222 62.9334L20.9778 63.2L20.0889 64.0889L19.8222 63.8223L20.1778 63.3778L18.9333 62.2222L17.6889 63.6445L18.6667 64.5334L19.0222 64.1778L19.3778 64.4445L18.3111 65.6L17.9556 65.3334L18.3111 64.8889L17.3333 64L16 65.4222L17.2444 66.5778L17.6 66.1334L17.9556 66.4L17.2444 67.2889Z" fill="#005285"/>
<path d="M21.9556 70.5778L18.8445 68.4444L19.0223 68.1778L19.5556 68.5333L22.1334 64.7111L21.6 64.3555L21.7778 64.0889L23.6445 65.3333L23.4667 65.6L22.9334 65.2444L20.4445 68.9778L21.8667 69.9555L22.2223 69.4222L22.5778 69.6889L21.9556 70.5778Z" fill="#005285"/>
<path d="M25.1556 69.8666L26.6667 68.4444L26.4889 70.5777L25.1556 69.8666ZM27.7334 72.9777L27.3778 72.8888L27.6445 67.4666L27.2 67.2888L23.2 71.111L22.7556 70.9333L22.6667 71.111L24.1778 71.8222L24.3556 71.5555L23.7334 71.2888L24.7111 70.311L26.4889 71.111L26.4 72.5333L25.8667 72.2666L25.7778 72.5333L27.5556 73.3333L27.7334 72.9777Z" fill="#005285"/>
<path d="M33.2445 74.8444L32.7111 74.7555L30.9334 70.3111L30.1334 73.6889L30.7556 73.8666L30.6667 74.2222L28.8889 73.7778L28.9778 73.4222L29.6 73.6L30.5778 69.5111L30.4 69.0666L29.8667 68.9777L29.9556 68.6222L31.4667 68.9777L33.1556 73.1555L33.9556 69.8666L33.3334 69.6889L33.4222 69.3333L35.2 69.7778L35.1111 70.1333L34.4889 69.9555L33.2445 74.8444Z" fill="#005285"/>
<path d="M38.4 70.0445L35.9111 69.9556V70.3111H36.5333L36.3556 74.9333H35.7333V75.2889L38.2222 75.3778C39.0222 75.3778 39.5556 75.2 40.0889 74.7556C40.6222 74.2222 40.9778 73.6 40.9778 72.8C41.0667 71.2889 39.9111 70.0445 38.4 70.0445ZM39.8222 72.7111C39.7333 73.9556 39.0222 74.8445 37.9556 74.8445H37.3333L37.5111 70.4889H38.2222C39.1111 70.4889 39.9111 71.5556 39.8222 72.7111Z" fill="#005285"/>
<path d="M65.4222 43.2889L63.4666 43.9111L63.9111 44.0889L63.2 44.5334C63.2889 44.1778 63.3777 43.7334 63.3777 43.2889L64.4444 42.4V42.8445L65.6889 41.1556L63.8222 42.0445L64.2666 42.1334L63.3777 42.8445C63.4666 42.3111 63.4666 41.8667 63.5555 41.3334L64.6222 40.1778L64.7111 40.6223L65.6889 38.8445L64 40L64.4444 40.0889L63.5555 40.9778C63.5555 40.6222 63.5555 40.3556 63.5555 40C63.5555 37.6 63.2 35.3778 62.5777 33.2445C61.5111 33.3334 60.4444 32.9778 59.9111 32.8889C61.2444 33.6889 61.7777 34.5778 61.9555 35.5556C60.8889 35.8222 59.3777 35.4667 58.5777 34.8445C59.3777 35.5556 59.8222 36.6223 59.9111 37.6889C58.7555 37.7778 57.7777 37.2445 56.9777 36.4445C57.5111 36.9778 58.1333 38.4 57.9555 39.3778C56.9777 39.2889 55.9111 38.6667 55.2889 37.9556C55.8222 39.0223 56 40 56 40.9778C55.0222 40.8 54.3111 40.5334 53.5111 39.7334C53.9555 40.7111 54.0444 41.7778 53.9555 42.5778C52.8889 42.2223 52.1777 41.7778 51.5555 40.7111C51.9111 41.6 52.0889 42.7556 51.9111 43.4667C51.0222 43.2 50.4 42.6667 49.9555 41.6889C50.4 42.6667 50.4 43.8222 50.2222 44.4445C49.8666 44.3556 49.3333 44.0889 49.0666 43.8222C49.0666 44 49.0666 44.1778 49.0666 44.3556C48.9777 45.0667 48.8889 45.6889 48.7111 46.2222C48.8 46.3111 48.9777 46.4889 48.9777 46.4889C49.4222 47.0222 50.1333 47.4667 50.6666 47.6445C50.4 47.6445 50.1333 47.9111 49.8666 47.9111C50.2222 48.2667 50.9333 48.3556 51.3777 48.8C51.0222 48.8 50.9333 49.0667 50.5777 49.0667C51.3777 49.6889 52.0889 49.6889 52.4444 49.7778C52.6222 49.7778 53.1555 49.8667 53.4222 49.7778C53.8666 49.6889 54.2222 49.8667 54.4889 50.0445L58.7555 41.4222L58.3111 41.5111L59.6444 40L59.2 42.0445L59.0222 41.6L54.7555 50.3111C54.8444 50.4 54.8444 50.4889 54.8444 50.6667L55.0222 50.5778L61.9555 45.0667L61.3333 44.8L63.2 44L61.9555 45.6V45.1556L55.1111 50.5778C55.2889 50.5778 55.4666 50.6667 55.5555 50.7556C55.6444 50.9334 55.6444 51.0222 55.5555 51.3778C55.4666 51.6445 55.3777 51.8222 55.2 51.8222C55.1111 51.8222 55.0222 51.8222 54.9333 51.8222C55.0222 51.8222 55.0222 51.9111 55.1111 52C55.1111 52.0889 55.2 52.2667 54.9333 52.5334C54.6666 52.8 54.4889 52.8889 54.3111 52.8C54.2222 52.7111 54.2222 52.7111 54.1333 52.6223C54.1333 52.7111 54.2222 52.8 54.2222 52.8C54.2222 53.0667 54.0444 53.1556 53.8666 53.2445C53.4222 53.4223 53.1555 53.3334 53.0666 53.1556C52.8 52.8 52.9777 52.3556 53.1555 52.2667C53.1555 52.4445 53.1555 52.5334 53.1555 52.7111C53.1555 52.8889 53.2444 53.0667 53.5111 53.0667C53.6889 53.0667 53.8666 52.9778 54.0444 52.8889C54.1333 52.8 54.1333 52.6222 54.1333 52.4445C54.1333 52.3556 54.0444 52.2667 53.9555 52.1778C54.1333 52.1778 54.2222 52.2667 54.3111 52.4445C54.4 52.5334 54.5777 52.5334 54.7555 52.4445C54.8444 52.2667 54.9333 52.1778 55.0222 52.0889C55.1111 51.8222 54.8444 51.6445 54.6666 51.5556C55.0222 51.5556 55.0222 51.7334 55.2889 51.6445C55.5555 51.6445 55.6444 51.2 55.6444 51.0223C55.6444 50.9334 55.5555 50.8445 55.3777 50.7556C55.2889 50.7556 55.1111 50.7556 55.0222 50.7556V50.8445C55.0222 50.9334 54.9333 51.1111 54.7555 51.2C54.6666 51.2 54.5777 51.2 54.6666 51.1111C54.7555 51.0222 54.8444 50.4889 54.5777 50.3111C54.4 50.1334 54.1333 50.0445 53.7777 50.0445C53.4222 50.0445 52.8889 50.1334 52.6222 50.0445C52.3555 50.0445 52.2666 50.3111 52.1777 50.4889C52.0889 50.8445 52 51.2 51.5555 51.0223C51.0222 50.6667 50.2222 50.7556 49.3333 50.4C49.4222 50.6667 49.4222 50.9334 49.5111 51.2C48.7111 51.0222 48.5333 50.5778 47.7333 50.3111C47.8222 50.5778 47.8222 50.8445 48 51.1111C47.3777 51.0222 46.7555 50.4 45.8666 50.1334H45.7777C45.4222 50.2223 45.1555 50.3111 44.8889 50.4C45.5111 51.1111 46.0444 52 46.3111 53.0667C46.3111 53.0667 45.8666 53.0667 45.1555 52.8889C45.3333 53.5111 45.5111 54.1334 45.5111 54.7556C45.5111 54.7556 44.9777 54.6667 44.2666 54.2222C44.3555 54.8445 44.2666 55.5556 44.1777 56.1778C44.1777 56.1778 43.5555 55.9111 42.9333 55.2C42.8444 55.8222 42.6666 56.5334 42.4 57.1556C42.4 57.1556 41.8666 56.8 41.3333 55.9111C41.0666 56.5334 40.8 57.2445 40.3555 57.8667C40.3555 57.8667 39.7333 57.2445 39.3777 56C38.8444 56.8 38.3111 57.1556 38.3111 57.1556C38.0444 56.5334 37.8666 55.8222 37.7777 55.2C37.0666 55.9111 36.5333 56.1778 36.5333 56.1778C36.3555 55.4667 36.3555 54.8445 36.4444 54.2222C35.7333 54.6667 35.2 54.7556 35.2 54.7556C35.2 54.0445 35.2889 53.4222 35.5555 52.8889C34.8444 53.1556 34.4 53.0667 34.4 53.0667C34.6666 52 35.3777 50.8445 35.8222 50.3111C35.5555 50.2222 35.2889 50.1334 35.0222 50.0445H34.9333C34.0444 50.3111 33.4222 50.8445 32.8 51.0223C32.9777 50.7556 32.9777 50.5778 33.0666 50.2222C32.2666 50.4889 32.0889 50.9334 31.2889 51.1111C31.4666 50.7556 31.3777 50.5778 31.4666 50.3111C30.7555 50.6667 29.6889 50.9334 29.2444 51.0223C28.7111 51.1111 28.7111 50.4 28.5333 50.2222C28.4444 50.1334 28.0889 50.1334 27.9111 50.1334C27.6444 50.1334 27.2 50.1334 26.8444 50.1334C26.4889 50.1334 26.2222 50.2223 26.0444 50.4C25.7777 50.5778 25.8666 51.1111 26.0444 51.2C26.1333 51.2889 26.1333 51.2889 25.9555 51.2889C25.7777 51.2 25.6889 51.0222 25.6889 50.9334C25.6889 50.9334 25.6889 50.9334 25.6889 50.8445C25.6 50.8445 25.4222 50.8445 25.2444 50.8445C25.0666 50.8445 24.9777 50.9334 24.9777 51.1111C24.9777 51.2889 25.0666 51.6445 25.3333 51.7334C25.6 51.8223 25.6889 51.6445 25.9555 51.6445C25.7777 51.7334 25.4222 51.9111 25.6 52.1778C25.6 52.2667 25.6889 52.3556 25.8666 52.5334C25.9555 52.6222 26.1333 52.6222 26.3111 52.5334C26.4 52.4445 26.4889 52.3556 26.6666 52.3556C26.5777 52.4445 26.5777 52.5334 26.4889 52.6223C26.4 52.8 26.4 52.9778 26.5777 53.0667C26.7555 53.1556 26.9333 53.2445 27.1111 53.2445C27.3777 53.2445 27.4666 53.0667 27.4666 52.8889C27.4666 52.7111 27.4666 52.5334 27.4666 52.4445C27.6444 52.5334 27.7333 52.9778 27.4666 53.3334C27.3777 53.5111 27.1111 53.6 26.6666 53.4222C26.4 53.3334 26.2222 53.2445 26.3111 52.9778C26.3111 52.8889 26.3111 52.8 26.4 52.8C26.3111 52.8889 26.3111 52.8889 26.2222 52.9778C26.0444 53.0667 25.8666 52.9778 25.6 52.7111C25.3333 52.4445 25.4222 52.2667 25.4222 52.1778C25.4222 52.0889 25.5111 52.0889 25.6 52C25.5111 52.0889 25.3333 52 25.3333 52C25.1555 52 25.0666 51.8222 24.9777 51.5556C24.8889 51.2 24.8889 51.1111 24.9777 50.9334C25.0666 50.7556 25.6 50.6667 25.8666 50.7556C25.8666 50.5778 25.9555 50.4 26.1333 50.3111C26.3111 50.2222 26.8444 49.9556 27.2889 50.0445C27.6444 50.1334 28.1777 50.0445 28.2666 50.0445C28.4444 50.0445 29.6 49.7778 30.4 49.2445C29.9555 49.3334 29.9555 49.0667 29.6 48.9778C30.0444 48.5334 30.7555 48.4445 31.1111 48.0889C30.8444 48.0889 30.4889 47.8223 30.3111 47.7334C31.0222 47.3778 31.4666 47.1111 31.9111 46.5778C31.9111 46.5778 32.0889 46.4 32.1777 46.3111C32 45.6889 31.8222 45.0667 31.7333 44.4445C31.7333 44.2667 31.7333 44.0889 31.7333 43.9111C31.5555 44.0889 31.2 44.2667 30.6666 44.4445C30.4 43.8222 30.4889 42.5778 30.8444 41.6889C30.4 42.6667 29.8666 43.2 28.8889 43.5556C28.6222 42.8445 28.8 41.6889 29.1555 40.8C28.5333 41.7778 27.9111 42.3111 26.8444 42.7556C26.7555 41.9556 26.8444 40.8 27.2 39.8222C26.4 40.6222 25.6889 40.8889 24.7111 41.0667C24.6222 40.0889 24.8889 39.2 25.4222 38.0445C24.8 38.7556 23.5555 39.2889 22.6666 39.3778C22.7555 38.4889 23.3777 37.3334 23.7333 36.6223C22.8444 37.2445 21.8666 37.6889 20.8889 37.7778C20.9777 36.8 21.4222 35.7334 22.2222 34.9334C21.3333 35.5556 20 35.9111 18.9333 35.8222C19.2 34.7556 19.8222 33.6889 20.7111 33.1556C20.1777 33.2445 19.2889 33.5111 18.2222 33.3334C17.6 35.4667 17.2444 37.6889 17.2444 40C16.7111 39.5556 16.3555 39.4667 16 39.1111C16.0889 39.6445 16.1777 39.9111 16.1777 40.5334C16.2666 41.6889 16.7111 42.3111 17.4222 42.6667C17.4222 43.0222 17.5111 43.2889 17.5111 43.6445C16.9777 43.2889 16.2666 43.1111 15.3777 43.1111C15.9111 44.8889 16.7111 45.0667 17.7777 45.2445C17.7777 45.4223 17.8666 45.6 17.8666 45.7778C17.3333 45.6 16.6222 45.6 15.8222 45.8667C16.3555 46.6667 17.0666 47.2 18.3111 47.3778C17.6 47.2889 16.8 47.4667 16.1777 47.7334C17.0666 48.5334 17.9555 48.8 18.8444 48.7111C18.8444 48.8 18.9333 48.8889 18.9333 49.0667C18.2222 49.2445 17.6889 49.6 17.3333 49.9556C18.0444 50.2223 18.7555 50.3111 19.3777 50.2222C19.3777 50.2222 19.3777 50.2222 19.3777 50.3111C19.0222 50.5778 18.6666 51.1111 18.4889 51.8222C19.0222 51.7334 19.4666 51.6445 20 51.5556C20.0889 51.7334 20.1777 51.9111 20.3555 52.0889C20.0889 52.6222 20 53.2445 20.1777 53.9556C20.6222 53.8667 20.9777 53.6889 21.2444 53.5111C21.3333 53.6889 21.4222 53.7778 21.5111 53.9556C21.4222 54.7556 21.6 55.6445 22.0444 56.1778C22.2222 55.9111 22.4 55.7334 22.5777 55.5556C23.6444 53.9556 23.0222 52.7111 23.0222 51.7334C23.0222 51.7334 23.0222 51.7334 23.0222 51.6445C23.1111 52.8889 24.1777 54.1334 22.9333 55.6445L22.8444 55.7334C27.2 60.8 33.6 64 40.8 64C51.0222 64 59.6444 57.6 63.0222 48.5334L64.0889 48.0889L64 48.5334L65.5111 47.2L63.4666 47.6445L63.9111 47.8222L63.1111 48.1778C63.2889 47.7334 63.3777 47.3778 63.5555 46.9334L64.7111 46.3111V46.7556L66.1333 45.2445L64.1777 45.8667L64.6222 46.0445L62.8444 46.2222C62.9333 45.7778 63.1111 45.3334 63.2 44.8L64.0889 44.2667V44.7111L65.4222 43.2889Z" fill="#005285"/>
<path d="M54.5778 50.7556C54.6667 50.7556 54.8445 50.7556 54.9333 50.7556C55.1111 50.7556 55.2 50.9333 55.2 51.0222C55.2 51.2 55.1111 51.5556 54.8445 51.6444C54.5778 51.6444 54.4889 51.5556 54.2222 51.5556C54.4 51.6444 54.7556 51.8222 54.5778 52.0889C54.4889 52.1778 54.4889 52.2667 54.3111 52.4444C54.2222 52.5333 54.0445 52.5333 53.8667 52.4444C53.7778 52.3556 53.6889 52.2667 53.5111 52.1778C53.6 52.2667 53.6 52.3556 53.6889 52.4444C53.7778 52.6222 53.7778 52.8 53.6 52.8889C53.4222 52.9778 53.1556 53.0667 53.0667 53.0667C52.8 53.0667 52.7111 52.8889 52.7111 52.7111C52.7111 52.5333 52.7111 52.3556 52.7111 52.2667C52.5333 52.3556 52.4445 52.8 52.6222 53.1556C52.7111 53.3333 52.9778 53.4222 53.4222 53.2444C53.6889 53.1556 53.8667 53.0667 53.7778 52.8C53.7778 52.7111 53.7778 52.6222 53.6889 52.6222C53.7778 52.7111 53.7778 52.7111 53.8667 52.8C54.0445 52.8889 54.2222 52.8 54.4889 52.5333C54.7556 52.2667 54.6667 52.0889 54.6667 52C54.6667 51.9111 54.5778 51.9111 54.4889 51.8222C54.5778 51.9111 54.7556 51.8222 54.7556 51.8222C54.9333 51.8222 55.0222 51.6444 55.1111 51.3778C55.2 51.0222 55.2889 50.9333 55.1111 50.7556C55.0222 50.6667 54.9333 50.5778 54.6667 50.5778L61.5111 45.1556V45.6L62.7556 44L61.3333 44.8L61.7778 44.8889L54.8445 50.4L54.6667 50.4889" fill="white"/>
<path d="M54.4889 50.2222L58.8444 41.5111L59.0222 41.9556L59.4667 39.9111L58.1333 41.4222L58.5778 41.3334L54.3111 50.0445" fill="white"/>
<path d="M53.4222 51.1999C53.5111 51.4666 53.5111 51.8222 53.5111 52C53.9556 51.9111 54.0445 51.4666 54.0445 51.2888C53.9556 51.0222 53.6 51.0222 53.4222 51.1999Z" fill="white"/>
<path d="M53.3333 51.2C53.0667 51.2 52.9778 51.0222 52.8889 50.9333C52.8 50.8444 52.7111 50.7556 52.7111 50.9333C52.7111 51.1111 52.7111 51.2 52.8 51.2889C52.9778 51.2889 53.1556 51.2889 53.3333 51.2Z" fill="white"/>
<path d="M53.3333 52C53.2445 51.9111 53.1556 51.7333 53.1556 51.5555C53.0667 51.6444 52.9778 52 52.9778 52.2667C52.9778 52.3555 52.9778 52.3555 53.1556 52.3555C53.3333 52.3555 53.5111 52.2667 53.6 52.1778C53.5111 52.1778 53.4222 52.0889 53.3333 52Z" fill="white"/>
<path d="M58.5778 42.9333H59.0222L56.3556 47.0222C56 47.6444 55.7333 48.2667 55.4667 48.8C55.4667 48.8 55.4667 48.8 55.4667 48.7111L59.2 43.0222L59.3778 43.4667L60 41.5111L58.5778 42.9333Z" fill="white"/>
<path d="M57.6 46.4889L62.4889 40.2667L62.5778 40.7111L63.3778 38.8445L61.7778 40.0889H62.2222L57.7778 45.6889C57.4222 46.2223 57.0667 46.7556 56.7111 47.2889C57.0667 47.1111 57.3333 46.7556 57.6 46.4889Z" fill="white"/>
<path d="M56.9778 48.3556C57.4222 48 57.7778 47.7334 58.2222 47.3778L62.3111 43.6445L62.4 44.0889L63.4667 42.4L61.6889 43.3778L62.1333 43.4667L58.0445 47.2889C57.6889 47.5556 57.3333 47.9111 56.9778 48.3556Z" fill="white"/>
<path d="M61.5111 47.4667L55.8222 50.3111C55.7333 50.4 55.6444 50.4889 55.5555 50.4889L55.6444 50.5778C55.6444 50.5778 55.6444 50.5778 55.6444 50.6667L61.6 47.7334L61.5111 48.1778L63.0222 46.8445L60.9778 47.2889L61.5111 47.4667Z" fill="white"/>
<path d="M52.8889 53.5111C52.8 53.5111 52.7111 53.4222 52.6222 53.4222L51.5556 55.5556L51.2 55.6445L49.9556 57.9556L50.6667 57.7778L50.8445 58.3111L52 56L51.8222 55.6445L52.8889 53.5111Z" fill="white"/>
<path d="M56.8889 49.5112C57.2445 49.3334 57.7778 49.0667 58.2222 48.8889L62.0445 46.4V46.8445L63.3778 45.3334L61.4222 45.9556L61.8667 46.1334L57.6889 48.8C57.4223 49.0667 57.1556 49.2445 56.8889 49.5112Z" fill="white"/>
<path d="M52.4445 52.9777C52.4445 52.8889 52.4445 52.7111 52.4445 52.6222L51.1111 54.1333H50.6667L48.7111 56H48.8H49.2445L49.3333 56.4444L50.9333 54.4L51.2 54.3111L52.4445 52.9777Z" fill="white"/>
<path d="M54.9333 49.9556C55.1111 49.8667 55.3778 49.6 55.6445 49.4223L62.3111 42.1334L62.4 42.5778L63.3778 40.8L61.6889 41.9556L62.1334 42.0445L55.1111 49.6C55.0222 49.7778 55.0222 49.8667 54.9333 49.9556Z" fill="white"/>
<path d="M48.9778 54.9334L51.4667 53.1556C51.7333 52.8 52.0889 52.5334 52.1778 52.3556L49.0667 54.4L48.7111 54.3111L48.4444 54.4889L46.4889 55.7334L47.0222 55.8223L47.1111 56.2667L48.7111 54.8445L48.9778 54.9334Z" fill="white"/>
<path d="M46.8445 55.2001L47.8222 54.5778L48.7111 53.9556L49.0667 54.0445C49.0667 54.0445 51.3778 52.6223 51.9111 52.2667L48.9778 53.7778L48.6222 53.6889L46.2222 54.8445L46.7556 55.0223L46.8445 55.2001Z" fill="white"/>
<path d="M25.1556 50.7556C24.8889 50.6667 24.3556 50.7556 24.2667 50.9334C24.1778 51.1111 24.1778 51.2 24.2667 51.5556C24.3556 51.9111 24.4445 52 24.6222 52C24.7111 52 24.8 52 24.8889 52C24.8 52 24.8 52.0889 24.7111 52.1778C24.7111 52.2667 24.6222 52.4445 24.8889 52.7111C25.0667 52.9778 25.3333 53.0667 25.5111 52.9778C25.6 52.8889 25.6889 52.8889 25.6889 52.8C25.6889 52.8889 25.6 52.9778 25.6 52.9778C25.5111 53.2445 25.7778 53.3334 25.9556 53.4222C26.4 53.6 26.6667 53.5111 26.7556 53.3334C27.0222 52.9778 26.8445 52.5334 26.7556 52.4445C26.7556 52.6222 26.7556 52.7111 26.7556 52.8889C26.7556 53.0667 26.6667 53.2445 26.4 53.2445C26.2222 53.2445 26.0445 53.1556 25.8667 53.0667C25.7778 52.9778 25.7778 52.8 25.7778 52.6222C25.7778 52.5334 25.8667 52.4445 25.9556 52.3556C25.7778 52.3556 25.6889 52.4445 25.6 52.5334C25.5111 52.6222 25.3333 52.6222 25.1556 52.5334C25.0667 52.3556 24.9778 52.2667 24.8889 52.1778C24.8 51.9111 25.0667 51.7334 25.2445 51.6445C24.8889 51.6445 24.8889 51.7334 24.6222 51.7334C24.3556 51.6445 24.2667 51.2889 24.2667 51.1111C24.2667 51.0222 24.3556 50.9334 24.5333 50.8445C24.7111 50.8445 24.8889 50.8445 24.9778 50.8445" fill="white"/>
<path d="M19.2889 48.0889C18.5778 47.6445 18.0444 47.5556 17.0667 47.6445C17.9555 47.7334 18.5778 47.8223 19.2889 48.0889Z" fill="white"/>
<path d="M19.7333 53.0667C19.8222 52.3555 20.2667 51.5555 20.9778 51.0222C21.4222 50.6667 21.6889 50.4889 21.3333 50.9333C20.7111 51.5555 20 52.5333 19.7333 53.0667Z" fill="white"/>
<path d="M21.1556 54.9334C20.8889 54.3112 21.1556 53.2445 21.4222 52.5334C21.6 52.0889 22.1333 51.3778 22.2222 51.2889C21.6889 52.1778 21.1556 54.3112 21.1556 54.9334Z" fill="white"/>
<path d="M19.0222 45.9556C18.9334 45.6889 18.7556 45.5111 18.4889 45.6C18.2222 45.6889 18.0445 45.8667 18.1334 46.1334C18.2222 46.4 18.4 46.5778 18.6667 46.4889C18.9334 46.4 19.0222 46.2223 19.0222 45.9556Z" fill="white"/>
<path d="M22.9333 46.5778C22.9333 45.8667 22.8445 45.2445 22.9333 44.4445C21.6 45.4222 21.1556 47.1111 21.6889 48.3556C21.6 48.3556 21.6 48.3556 21.5111 48.3556C21.2445 48.4445 21.0667 48.6222 21.1556 48.8889C21.2445 49.1556 21.4222 49.3333 21.6889 49.2445C21.9556 49.1556 22.1333 48.9778 22.0445 48.7111C22.0445 48.6222 21.9556 48.4445 21.8667 48.4445C21.6 47.3778 21.8667 46.0445 22.4 45.5111C22.2222 46.1333 21.8667 47.5556 22.1333 48.8889C22.3111 48.6222 22.4889 48.3556 22.6667 48.1778C22.6667 48.3556 22.7556 48.6222 22.8445 48.8C22.8445 47.8222 23.2 46.7556 24.2667 46.0445C23.4667 47.0222 23.0222 48.1778 22.9333 49.0667C23.4667 48.3556 24.8 48.1778 24.8889 45.3333C24.1778 45.4222 23.3778 45.8667 22.9333 46.5778Z" fill="white"/>
<path d="M23.8222 49.4223C23.7333 49.1556 23.5556 48.9778 23.2889 49.0667C23.0222 49.1556 22.8445 49.4223 22.9333 49.6C23.0222 49.8667 23.2 50.0445 23.4667 49.9556C23.7333 49.9556 23.9111 49.6889 23.8222 49.4223Z" fill="white"/>
<path d="M23.6444 50.9334C23.5555 50.6667 23.3778 50.4889 23.1111 50.5778C22.8444 50.6667 22.6667 50.8445 22.7555 51.1111C22.8444 51.3778 23.0222 51.5556 23.2889 51.4667C23.5555 51.4667 23.7333 51.2 23.6444 50.9334Z" fill="white"/>
<path d="M20.8 43.7333C19.8222 44.5333 19.5556 45.5999 19.6445 46.4888H19.5556C19.3778 46.4888 19.2 46.7555 19.2889 46.9333C19.2889 47.1111 19.5556 47.2888 19.7333 47.1999C19.8222 47.1999 19.8222 47.1999 19.8222 47.1111C19.9111 47.3777 20 47.6444 20.1778 47.8222C20.0889 47.5555 20 47.1999 20 46.8444V46.7555C19.9111 45.9555 20.0889 45.1555 20.5333 44.6222C20.3556 45.5111 20.1778 47.1111 20.3556 48.0888C20.6222 47.0222 22.2222 46.5777 20.8 43.7333Z" fill="white"/>
<path d="M24.8 50.1333C24.8 49.9556 24.5333 49.7778 24.3556 49.8667C24.1778 49.8667 24 50.1333 24.0889 50.3111C24.0889 50.4889 24.3556 50.6667 24.5333 50.5778C24.7111 50.4889 24.8 50.3111 24.8 50.1333Z" fill="white"/>
<path d="M22.6666 50.0445C22.6666 49.8667 22.4889 49.7778 22.2222 49.7778C22.0444 49.7778 21.8666 49.9556 21.9555 50.2223C21.9555 50.4001 22.2222 50.5778 22.4 50.4889C22.5778 50.4001 22.7555 50.2223 22.6666 50.0445Z" fill="white"/>
<path d="M17.8666 45.2445C17.8666 45.0667 17.6889 44.9778 17.5111 44.9778C16.9778 44.3556 16.3555 43.6445 15.1111 43.4667C15.7333 43.7333 16.7111 44.3556 17.4222 44.9778C17.2444 44.9778 17.1555 45.1556 17.1555 45.3333C17.1555 45.5111 17.3333 45.6 17.5111 45.6C17.7778 45.6 17.9555 45.4222 17.8666 45.2445Z" fill="white"/>
<path d="M17.9555 43.0222C17.8667 42.7556 17.6889 42.6667 17.5111 42.6667C17.2444 41.6 16.9778 40.8 15.8222 40C16.4444 40.8 17.0667 41.8667 17.5111 42.6667C17.3333 42.7556 17.2444 42.9333 17.2444 43.1111C17.3333 43.2889 17.5111 43.4667 17.6889 43.4667C17.8666 43.4667 17.9555 43.2 17.9555 43.0222Z" fill="white"/>
<path d="M19.1111 47.1111C19.1111 46.9333 18.9333 46.8445 18.7556 46.8445C18.6667 46.8445 18.5778 46.9333 18.5778 46.9333C17.5111 46.0445 16.8 46.0445 16.2667 45.9556C16.6222 46.0445 17.7778 46.4 18.5778 46.9333C18.5778 47.0222 18.4889 47.0222 18.5778 47.1111C18.5778 47.2889 18.7556 47.3778 18.9333 47.3778C19.0222 47.4667 19.2 47.2889 19.1111 47.1111Z" fill="white"/>
<path d="M20 48.4445C19.9111 48.1778 19.7334 48 19.4667 48.0889C19.2 48.1778 19.0222 48.3556 19.1111 48.6223C19.2 48.8889 19.3778 49.0667 19.6445 48.9778C19.9111 48.8889 20.0889 48.7111 20 48.4445Z" fill="white"/>
<path d="M20.7111 49.2445C20.7111 49.0667 20.5333 48.9778 20.3555 48.9778C20.2666 48.9778 20.1778 49.0667 20.0889 49.1556C19.2 49.0667 18.2222 49.1556 17.3333 49.6C18.3111 49.4222 19.2889 49.1556 20.0889 49.1556C20.0889 49.1556 20.0889 49.2445 20.0889 49.3333C20.0889 49.5111 20.2666 49.6 20.4444 49.6C20.6222 49.6 20.7111 49.4222 20.7111 49.2445Z" fill="white"/>
<path d="M21.6 49.7778C21.5111 49.5111 21.3333 49.4222 21.0667 49.4222C20.8 49.5111 20.7111 49.6889 20.7111 49.9556C20 49.9556 18.9333 50.1334 18.2222 50.9334C18.9333 50.4889 20.0889 50.0445 20.7111 49.9556C20.8 50.1334 20.9778 50.3111 21.2445 50.2222C21.5111 50.2222 21.6889 49.9556 21.6 49.7778Z" fill="white"/>
<path d="M19.9111 41.5111C18.4 42.1333 17.6889 44.0889 18.4889 45.4222C19.2 44.4444 20.5333 44.1778 19.9111 41.5111ZM18.4889 45.3333C18.3111 44.5333 18.7555 42.4889 19.4666 42.1333C19.0222 43.1111 18.8444 44.0889 18.4889 45.3333Z" fill="white"/>
<path d="M18.3111 38.6666C17.8667 38.8444 17.1555 39.5555 16.8 40.4444C16.8889 40.6222 16.9778 40.7111 17.0667 40.8888C17.2444 40.2666 17.6 39.4666 17.9555 39.1111C17.6889 39.5555 17.3333 40.4444 17.2444 41.1555C17.4222 41.6 17.5111 41.9555 17.5111 42.4C18.4889 41.5111 18.8444 40.0888 18.3111 38.6666Z" fill="white"/>
<path d="M27.5555 51.9111C29.5111 53.3334 30.5778 55.3778 30.8444 56.9778C30.5778 56.8 30.1333 56.6222 29.8667 56.7111C29.6 55.0222 28.7111 53.6 27.2889 52.5334C27.3778 52.1778 27.4667 52 27.5555 51.9111Z" fill="white"/>
<path d="M25.7778 51.3777C25.8667 51.2 26.2222 51.2 26.4 51.2889C26.3111 51.5555 26.3111 51.9111 26.3111 52.0889C25.8667 52.0889 25.7778 51.6444 25.7778 51.3777Z" fill="white"/>
<path d="M26.4889 51.3777C26.7556 51.3777 26.8444 51.2 26.9333 51.1111C27.0222 51.0222 27.1111 50.9333 27.1111 51.1111C27.1111 51.2888 27.1111 51.3777 27.0222 51.4666C26.8444 51.4666 26.6667 51.4666 26.4889 51.3777Z" fill="white"/>
<path d="M26.5777 51.8223C26.5777 52 26.4889 52.0889 26.4 52.2667C26.3111 52.3556 26.2222 52.4445 26.1333 52.4445C26.2222 52.5334 26.4 52.6223 26.5777 52.6223C26.7555 52.6223 26.7555 52.6223 26.7555 52.5334C26.7555 52.2667 26.6666 51.9112 26.5777 51.8223Z" fill="white"/>
</g>
<defs>
<clipPath id="clip0_1612_29566">
<rect width="266.667" height="80" fill="white"/>
</clipPath>
</defs>
</svg>
