<svg width="48" height="48" viewBox="0 0 48 48" fill="none" xmlns="http://www.w3.org/2000/svg">
<path fill-rule="evenodd" clip-rule="evenodd" d="M30.7931 7.69534H34.8697C35.9507 7.69534 36.9872 8.12525 37.7525 8.88908C38.5163 9.6529 38.9462 10.6908 38.9462 11.7719V38.9454C38.9462 40.0265 38.5163 41.063 37.7525 41.8282C36.9886 42.592 35.9507 43.0219 34.8697 43.0219H13.1305C12.0495 43.0219 11.013 42.592 10.2478 41.8282C9.48254 41.0644 9.05402 40.0265 9.05402 38.9454V11.7719C9.05402 10.6908 9.48393 9.65429 10.2478 8.88908C11.0116 8.12525 12.0495 7.69534 13.1305 7.69534H17.2071C17.2071 6.19412 18.4231 4.97812 19.9243 4.97812H28.0759C29.5771 4.97812 30.7931 6.19412 30.7931 7.69534ZM28.0759 7.69534H19.9243V10.4126H28.0759V7.69534ZM17.2057 10.4126H13.1291C12.7688 10.4126 12.4238 10.5559 12.1678 10.8105C11.9131 11.0651 11.7698 11.4115 11.7698 11.7719V38.9454C11.7698 39.3058 11.9131 39.6508 12.1678 39.9068C12.4224 40.1614 12.7688 40.3047 13.1291 40.3047H34.8683C35.2286 40.3047 35.5737 40.1614 35.8297 39.9068C36.0843 39.6522 36.2276 39.3058 36.2276 38.9454V11.7719C36.2276 11.4115 36.0843 11.0665 35.8297 10.8105C35.5751 10.5559 35.2286 10.4126 34.8683 10.4126H30.7918C30.7918 11.9138 29.5758 13.1298 28.0745 13.1298H19.9229C18.4217 13.1298 17.2057 11.9138 17.2057 10.4126ZM14.0808 22.0981C13.6314 21.4985 13.7525 20.6456 14.3521 20.1962C14.9518 19.7468 15.8046 19.8679 16.254 20.4675L16.9733 21.4261L18.7069 17.9576C19.0422 17.287 19.8589 17.0143 20.5295 17.3496C21.2001 17.6849 21.4728 18.5016 21.1375 19.1722L18.4203 24.6066C18.2102 25.0282 17.7956 25.3093 17.3267 25.3524C16.8578 25.3941 16.4001 25.191 16.1177 24.8139L14.0794 22.0967L14.0808 22.0981ZM23.9994 24C23.2495 24 22.6401 23.3906 22.6401 22.6407C22.6401 21.8908 23.2495 21.2814 23.9994 21.2814H32.1511C32.901 21.2814 33.5104 21.8908 33.5104 22.6407C33.5104 23.3906 32.901 24 32.1511 24H23.9994ZM14.0808 31.6091C13.6314 31.0094 13.7525 30.1566 14.3521 29.7072C14.9518 29.2578 15.8046 29.3788 16.254 29.9785L16.9733 30.9371L18.7069 27.4686C19.0422 26.7979 19.8589 26.5253 20.5295 26.8606C21.2001 27.1959 21.4728 28.0126 21.1375 28.6832L18.4203 34.1176C18.2102 34.5392 17.7956 34.8216 17.3267 34.8633C16.8578 34.9051 16.4001 34.7019 16.1177 34.3249L14.0794 31.6077L14.0808 31.6091ZM23.9994 33.511C23.2495 33.511 22.6401 32.9016 22.6401 32.1517C22.6401 31.4018 23.2495 30.7924 23.9994 30.7924H32.1511C32.901 30.7924 33.5104 31.4004 33.5104 32.1517C33.5104 32.903 32.901 33.511 32.1511 33.511H23.9994Z" />
</svg>
